<svg width="160" height="50" viewBox="0 0 160 50" fill="none" xmlns="http://www.w3.org/2000/svg">
<rect width="160" height="50" rx="8" fill="#1D214C"/>
<path fill-rule="evenodd" clip-rule="evenodd" d="M72.4303 10.9074C72.283 11.0504 72.1053 11.1219 71.8973 11.1219C71.6806 11.1219 71.5008 11.0504 71.3578 10.9074C71.2148 10.7644 71.1433 10.5846 71.1433 10.3679C71.1433 10.1599 71.2148 9.98656 71.3578 9.84789C71.5008 9.70923 71.6806 9.63989 71.8973 9.63989C72.1053 9.63989 72.283 9.70923 72.4303 9.84789C72.5776 9.98656 72.6513 10.1599 72.6513 10.3679C72.6513 10.5846 72.5776 10.7644 72.4303 10.9074ZM50.8748 19.1559C51.6635 19.1559 52.2962 19.0129 52.7728 18.7269C53.2495 18.4409 53.6525 18.0336 53.9818 17.5049L54.0728 18.9999H55.0738V14.1379H51.3298V14.9959H53.9558C53.8865 15.9839 53.6048 16.7617 53.1108 17.3294C52.6168 17.8971 51.8845 18.1809 50.9138 18.1809C50.2812 18.1809 49.7265 18.0314 49.2498 17.7324C48.7732 17.4334 48.4005 17.0066 48.1318 16.4519C47.8632 15.8972 47.7288 15.2342 47.7288 14.4629C47.7288 13.6916 47.8653 13.0286 48.1383 12.4739C48.4113 11.9192 48.7948 11.4924 49.2888 11.1934C49.7828 10.8944 50.3635 10.7449 51.0308 10.7449C51.7415 10.7449 52.3243 10.9052 52.7793 11.2259C53.2343 11.5466 53.5225 11.9799 53.6438 12.5259H54.9048C54.7055 11.6592 54.2657 10.9789 53.5853 10.4849C52.905 9.99089 52.0535 9.74389 51.0308 9.74389C50.1295 9.74389 49.3473 9.94323 48.6843 10.3419C48.0213 10.7406 47.51 11.2952 47.1503 12.0059C46.7907 12.7166 46.6108 13.5356 46.6108 14.4629C46.6108 15.3902 46.7885 16.2071 47.1438 16.9134C47.4992 17.6197 47.9975 18.1701 48.6388 18.5644C49.2802 18.9587 50.0255 19.1559 50.8748 19.1559ZM59.348 19.1559C60.1106 19.1559 60.7368 18.9587 61.2265 18.5644C61.7161 18.1701 62.0476 17.6739 62.221 17.0759H61.142C61.0033 17.4312 60.7823 17.7129 60.479 17.9209C60.1756 18.1289 59.7986 18.2329 59.348 18.2329C59.0013 18.2329 58.6741 18.1506 58.3665 17.9859C58.0588 17.8212 57.8031 17.5764 57.5995 17.2514C57.3958 16.9264 57.281 16.5169 57.255 16.0229H62.39C62.39 15.9016 62.3921 15.7932 62.3965 15.6979C62.4008 15.6026 62.403 15.5072 62.403 15.4119C62.403 14.8832 62.2816 14.3892 62.039 13.9299C61.7963 13.4706 61.4475 13.1001 60.9925 12.8184C60.5375 12.5367 59.998 12.3959 59.374 12.3959C58.7413 12.3959 58.1845 12.5367 57.7035 12.8184C57.2225 13.1001 56.8476 13.4944 56.579 14.0014C56.3103 14.5084 56.176 15.0999 56.176 15.7759C56.176 16.4606 56.3125 17.0542 56.5855 17.5569C56.8585 18.0596 57.2333 18.4517 57.71 18.7334C58.1866 19.0151 58.7326 19.1559 59.348 19.1559ZM57.268 15.1779H61.324C61.298 14.5972 61.0986 14.1422 60.726 13.8129C60.3533 13.4836 59.894 13.3189 59.348 13.3189C58.828 13.3189 58.3665 13.4771 57.9635 13.7934C57.5605 14.1097 57.3286 14.5712 57.268 15.1779ZM66.8721 18.9999V18.0639H66.1961C65.7801 18.0639 65.4897 17.9924 65.3251 17.8494C65.1604 17.7064 65.0781 17.4312 65.0781 17.0239V13.4749H66.9761V12.5519H65.0781V11.0049H64.1291L63.9861 12.5519H62.8681V13.4749H63.9861V17.0239C63.9861 17.7692 64.1551 18.2849 64.4931 18.5709C64.8311 18.8569 65.2947 18.9999 65.8841 18.9999H66.8721ZM72.4433 18.9999V12.5519H71.3513V18.9999H72.4433ZM77.5884 18.0639V18.9999H76.6004C76.0111 18.9999 75.5474 18.8569 75.2094 18.5709C74.8714 18.2849 74.7024 17.7692 74.7024 17.0239V13.4749H73.5844V12.5519H74.7024L74.8454 11.0049H75.7944V12.5519H77.6924V13.4749H75.7944V17.0239C75.7944 17.4312 75.8767 17.7064 76.0414 17.8494C76.2061 17.9924 76.4964 18.0639 76.9124 18.0639H77.5884ZM84.8886 19.1559C85.4953 19.1559 86.0434 19.0172 86.5331 18.7399C87.0228 18.4626 87.4106 18.0704 87.6966 17.5634C87.9826 17.0564 88.1256 16.4606 88.1256 15.7759C88.1256 15.0912 87.9848 14.4954 87.7031 13.9884C87.4214 13.4814 87.0379 13.0892 86.5526 12.8119C86.0673 12.5346 85.5213 12.3959 84.9146 12.3959C84.3079 12.3959 83.7598 12.5346 83.2701 12.8119C82.7804 13.0892 82.3926 13.4814 82.1066 13.9884C81.8206 14.4954 81.6776 15.0912 81.6776 15.7759C81.6776 16.4606 81.8185 17.0564 82.1001 17.5634C82.3818 18.0704 82.7653 18.4626 83.2506 18.7399C83.736 19.0172 84.2819 19.1559 84.8886 19.1559ZM83.8681 17.9469C84.1844 18.1289 84.5246 18.2199 84.8886 18.2199C85.2613 18.2199 85.6079 18.1289 85.9286 17.9469C86.2493 17.7649 86.5093 17.4919 86.7086 17.1279C86.908 16.7639 87.0076 16.3132 87.0076 15.7759C87.0076 15.2386 86.9101 14.7879 86.7151 14.4239C86.5201 14.0599 86.2623 13.7869 85.9416 13.6049C85.6209 13.4229 85.2786 13.3319 84.9146 13.3319C84.542 13.3319 84.1953 13.4229 83.8746 13.6049C83.554 13.7869 83.2939 14.0599 83.0946 14.4239C82.8953 14.7879 82.7956 15.2386 82.7956 15.7759C82.7956 16.3132 82.8953 16.7639 83.0946 17.1279C83.2939 17.4919 83.5518 17.7649 83.8681 17.9469ZM90.4497 18.9999V15.6589C90.4497 14.9136 90.6339 14.3394 91.0022 13.9364C91.3706 13.5334 91.8321 13.3319 92.3867 13.3319C93.4961 13.3319 94.0507 14.0036 94.0507 15.3469V18.9999H95.1427V15.2299C95.1427 14.2679 94.9152 13.5551 94.4602 13.0914C94.0052 12.6277 93.3964 12.3959 92.6337 12.3959C92.1397 12.3959 91.6977 12.5129 91.3077 12.7469C90.9177 12.9809 90.6187 13.3016 90.4107 13.7089L90.3457 12.5519H89.3577V18.9999H90.4497ZM89.8957 38.9999V26.7599H88.0937V38.9999H89.8957ZM54.7208 38.6939C54.1202 39.0339 53.3382 39.2039 52.3748 39.2039C51.2528 39.2039 50.2725 38.9489 49.4338 38.4389C48.5952 37.9289 47.9435 37.2149 47.4788 36.2969C47.0142 35.3789 46.7818 34.3079 46.7818 33.0839C46.7818 31.8712 47.0198 30.8002 47.4958 29.8709C47.9718 28.9416 48.649 28.2134 49.5273 27.6864C50.4057 27.1594 51.4455 26.8959 52.6468 26.8959C54.0068 26.8959 55.1402 27.2246 56.0468 27.8819C56.9535 28.5392 57.5428 29.4459 57.8148 30.6019H55.7748C55.5935 29.9672 55.2365 29.4686 54.7038 29.1059C54.1712 28.7432 53.4855 28.5619 52.6468 28.5619C51.4002 28.5619 50.4198 28.9642 49.7058 29.7689C48.9918 30.5736 48.6348 31.6842 48.6348 33.1009C48.6348 34.5176 48.9862 35.6226 49.6888 36.4159C50.3915 37.2092 51.3265 37.6059 52.4938 37.6059C53.6725 37.6059 54.5593 37.2716 55.1543 36.6029C55.7493 35.9342 56.0978 35.0446 56.1998 33.9339H52.9698V32.5399H58.0188V38.9999H56.3698L56.2168 37.2489C55.8202 37.8722 55.3215 38.3539 54.7208 38.6939ZM65.8861 38.6514C65.2401 39.0197 64.5147 39.2039 63.7101 39.2039C62.9054 39.2039 62.1829 39.0197 61.5426 38.6514C60.9022 38.2831 60.3951 37.7674 60.0211 37.1044C59.6471 36.4414 59.4601 35.6679 59.4601 34.7839C59.4601 33.8999 59.6499 33.1264 60.0296 32.4634C60.4092 31.8004 60.9221 31.2847 61.5681 30.9164C62.2141 30.5481 62.9337 30.3639 63.7271 30.3639C64.5317 30.3639 65.2542 30.5481 65.8946 30.9164C66.5349 31.2847 67.0449 31.8004 67.4246 32.4634C67.8042 33.1264 67.9941 33.8999 67.9941 34.7839C67.9941 35.6679 67.8042 36.4414 67.4246 37.1044C67.0449 37.7674 66.5321 38.2831 65.8861 38.6514ZM63.7101 37.6569C63.2794 37.6569 62.8827 37.5492 62.5201 37.3339C62.1574 37.1186 61.8627 36.7984 61.6361 36.3734C61.4094 35.9484 61.2961 35.4186 61.2961 34.7839C61.2961 34.1492 61.4094 33.6194 61.6361 33.1944C61.8627 32.7694 62.1602 32.4492 62.5286 32.2339C62.8969 32.0186 63.2964 31.9109 63.7271 31.9109C64.1577 31.9109 64.5572 32.0186 64.9256 32.2339C65.2939 32.4492 65.5886 32.7694 65.8096 33.1944C66.0306 33.6194 66.1411 34.1492 66.1411 34.7839C66.1411 35.4186 66.0277 35.9484 65.8011 36.3734C65.5744 36.7984 65.2769 37.1186 64.9086 37.3339C64.5402 37.5492 64.1407 37.6569 63.7101 37.6569ZM75.6913 38.6514C75.0453 39.0197 74.32 39.2039 73.5153 39.2039C72.7106 39.2039 71.9881 39.0197 71.3478 38.6514C70.7075 38.2831 70.2003 37.7674 69.8263 37.1044C69.4523 36.4414 69.2653 35.6679 69.2653 34.7839C69.2653 33.8999 69.4551 33.1264 69.8348 32.4634C70.2145 31.8004 70.7273 31.2847 71.3733 30.9164C72.0193 30.5481 72.739 30.3639 73.5323 30.3639C74.337 30.3639 75.0595 30.5481 75.6998 30.9164C76.3401 31.2847 76.8501 31.8004 77.2298 32.4634C77.6094 33.1264 77.7993 33.8999 77.7993 34.7839C77.7993 35.6679 77.6094 36.4414 77.2298 37.1044C76.8501 37.7674 76.3373 38.2831 75.6913 38.6514ZM73.5153 37.6569C73.0846 37.6569 72.688 37.5492 72.3253 37.3339C71.9626 37.1186 71.668 36.7984 71.4413 36.3734C71.2146 35.9484 71.1013 35.4186 71.1013 34.7839C71.1013 34.1492 71.2146 33.6194 71.4413 33.1944C71.668 32.7694 71.9655 32.4492 72.3338 32.2339C72.7021 32.0186 73.1016 31.9109 73.5323 31.9109C73.9629 31.9109 74.3625 32.0186 74.7308 32.2339C75.0991 32.4492 75.3938 32.7694 75.6148 33.1944C75.8358 33.6194 75.9463 34.1492 75.9463 34.7839C75.9463 35.4186 75.833 35.9484 75.6063 36.3734C75.3796 36.7984 75.0821 37.1186 74.7138 37.3339C74.3455 37.5492 73.946 37.6569 73.5153 37.6569ZM84.536 42.5274C83.975 42.8051 83.2582 42.9439 82.3855 42.9439C81.2068 42.9439 80.252 42.7201 79.521 42.2724C78.79 41.8247 78.4245 41.1476 78.4245 40.2409C78.4245 39.8896 78.518 39.5411 78.705 39.1954C78.892 38.8497 79.1895 38.5239 79.5975 38.2179C79.3595 38.1159 79.1527 38.0054 78.977 37.8864C78.8013 37.7674 78.6455 37.6456 78.5095 37.5209V37.1129L79.9715 35.6169C79.3142 35.0502 78.9855 34.3079 78.9855 33.3899C78.9855 32.8346 79.1187 32.3274 79.385 31.8684C79.6513 31.4094 80.0395 31.0439 80.5495 30.7719C81.0595 30.4999 81.6715 30.3639 82.3855 30.3639C82.8615 30.3639 83.3035 30.4319 83.7115 30.5679H86.8565V31.7579L85.3605 31.8429C85.6325 32.3076 85.7685 32.8232 85.7685 33.3899C85.7685 33.9566 85.6353 34.4666 85.369 34.9199C85.1027 35.3732 84.7173 35.7359 84.213 36.0079C83.7087 36.2799 83.0995 36.4159 82.3855 36.4159C81.9435 36.4159 81.5355 36.3649 81.1615 36.2629L80.4305 36.9769C80.5552 37.0562 80.7082 37.1242 80.8895 37.1809C81.0708 37.2376 81.3258 37.2886 81.6545 37.3339C81.9832 37.3792 82.4308 37.4246 82.9975 37.4699C84.1195 37.5719 84.9298 37.8411 85.4285 38.2774C85.9272 38.7137 86.1765 39.2946 86.1765 40.0199C86.1765 40.5186 86.0433 40.9917 85.777 41.4394C85.5107 41.8871 85.097 42.2497 84.536 42.5274ZM82.3855 35.0049C81.8528 35.0049 81.425 34.8661 81.102 34.5884C80.779 34.3107 80.6175 33.9169 80.6175 33.4069C80.6175 32.8856 80.779 32.4889 81.102 32.2169C81.425 31.9449 81.8528 31.8089 82.3855 31.8089C82.9068 31.8089 83.329 31.9449 83.652 32.2169C83.975 32.4889 84.1365 32.8856 84.1365 33.4069C84.1365 33.9169 83.975 34.3107 83.652 34.5884C83.329 34.8661 82.9068 35.0049 82.3855 35.0049ZM80.7705 41.1674C81.2012 41.4111 81.7395 41.5329 82.3855 41.5329C83.0088 41.5329 83.5132 41.3997 83.8985 41.1334C84.2838 40.8671 84.4765 40.5129 84.4765 40.0709C84.4765 39.7422 84.3462 39.4617 84.0855 39.2294C83.8248 38.9971 83.3318 38.8526 82.6065 38.7959C82.0625 38.7619 81.5808 38.7109 81.1615 38.6429C80.7648 38.8582 80.4928 39.0906 80.3455 39.3399C80.1982 39.5892 80.1245 39.8329 80.1245 40.0709C80.1245 40.5582 80.3398 40.9237 80.7705 41.1674ZM98.2475 38.4049C97.5731 38.9376 96.7373 39.2039 95.74 39.2039C94.9126 39.2039 94.1788 39.0197 93.5385 38.6514C92.8981 38.2831 92.3966 37.7702 92.034 37.1129C91.6713 36.4556 91.49 35.6906 91.49 34.8179C91.49 33.9339 91.6685 33.1576 92.0255 32.4889C92.3825 31.8202 92.8811 31.2989 93.5215 30.9249C94.1618 30.5509 94.907 30.3639 95.757 30.3639C96.5843 30.3639 97.304 30.5481 97.916 30.9164C98.528 31.2847 99.004 31.7749 99.344 32.3869C99.684 32.9989 99.854 33.6732 99.854 34.4099C99.854 34.5232 99.8511 34.6451 99.8455 34.7754C99.8398 34.9057 99.8313 35.0502 99.82 35.2089H93.258C93.3146 36.0249 93.5838 36.6454 94.0655 37.0704C94.5471 37.4954 95.1053 37.7079 95.74 37.7079C96.25 37.7079 96.6778 37.5917 97.0235 37.3594C97.3691 37.1271 97.627 36.8126 97.797 36.4159H99.599C99.3723 37.2092 98.9218 37.8722 98.2475 38.4049ZM98.052 33.9849H93.292C93.394 33.2709 93.6773 32.7354 94.142 32.3784C94.6066 32.0214 95.1393 31.8429 95.74 31.8429C96.386 31.8429 96.9243 32.0356 97.355 32.4209C97.7856 32.8062 98.018 33.3276 98.052 33.9849ZM109.485 34.2059H107.122V38.9999H105.32V27.0999H109.485C110.415 27.0999 111.185 27.2557 111.797 27.5674C112.409 27.8791 112.866 28.3041 113.166 28.8424C113.466 29.3807 113.616 29.9899 113.616 30.6699C113.616 31.3159 113.472 31.9081 113.183 32.4464C112.894 32.9847 112.443 33.4126 111.831 33.7299C111.219 34.0472 110.437 34.2059 109.485 34.2059ZM109.4 32.7269H107.122V28.5789H109.4C110.25 28.5789 110.86 28.7631 111.228 29.1314C111.596 29.4997 111.78 30.0126 111.78 30.6699C111.78 31.3046 111.596 31.8061 111.228 32.1744C110.86 32.5427 110.25 32.7269 109.4 32.7269ZM116.758 26.7599V38.9999H114.956V26.7599H116.758ZM121.514 39.2039C122.251 39.2039 122.846 39.0452 123.299 38.7279C123.752 38.4106 124.098 38.0196 124.336 37.5549L124.489 38.9999H126.053V33.8149C126.053 32.7496 125.73 31.9081 125.084 31.2904C124.438 30.6727 123.526 30.3639 122.347 30.3639C121.689 30.3639 121.086 30.4801 120.536 30.7124C119.987 30.9447 119.533 31.2791 119.176 31.7154C118.819 32.1517 118.613 32.6759 118.556 33.2879H120.358C120.437 32.8119 120.661 32.4521 121.029 32.2084C121.398 31.9647 121.831 31.8429 122.33 31.8429C122.896 31.8429 123.358 32.0072 123.715 32.3359C124.072 32.6646 124.251 33.1576 124.251 33.8149V33.9679H122.041C120.862 33.9679 119.956 34.2059 119.321 34.6819C118.686 35.1579 118.369 35.8039 118.369 36.6199C118.369 37.0846 118.482 37.5124 118.709 37.9034C118.936 38.2944 119.281 38.6089 119.746 38.8469C120.211 39.0849 120.8 39.2039 121.514 39.2039ZM120.689 37.4104C120.978 37.6314 121.372 37.7419 121.871 37.7419C122.358 37.7419 122.769 37.6257 123.103 37.3934C123.438 37.1611 123.698 36.8522 123.885 36.4669C124.072 36.0816 124.188 35.6566 124.234 35.1919H122.228C121.514 35.1919 121.007 35.3166 120.706 35.5659C120.406 35.8152 120.256 36.1269 120.256 36.5009C120.256 36.8862 120.4 37.1894 120.689 37.4104ZM130.401 42.7399L135.841 30.5679H133.937L131.234 36.8069L128.65 30.5679H126.695L130.027 38.3029H130.52L128.497 42.7399H130.401Z" fill="white"/>
<g clip-path="url(#clip0_1:148)">
<path fill-rule="evenodd" clip-rule="evenodd" d="M17.4639 15.1188L26.913 25.0147L17.5093 34.9968C17.2349 34.8143 17.0877 34.4182 17.0853 33.9064C17.0805 32.9257 17.0057 17.3573 17 16.1893C16.9974 15.629 17.1917 15.2871 17.4639 15.1188ZM30.0292 21.7072L18.5389 15.1323C18.4162 15.0619 18.2768 15.0191 18.138 15L27.304 24.5997L30.0292 21.7072ZM30.5397 27.9886L27.6973 25.0119L30.5369 21.9979L34.4472 24.235C35.4105 24.7859 34.9178 25.4752 34.4472 25.7454L30.5397 27.9886ZM18.2882 35C18.3683 34.9684 18.452 34.9281 18.5388 34.8783L30.0314 28.2804L27.3067 25.4269L18.2882 35Z" fill="white"/>
</g>
<defs>
<clipPath id="clip0_1:148">
<rect width="24" height="24" fill="white" transform="translate(14 13)"/>
</clipPath>
</defs>
</svg>
