<svg width="45" height="45" viewBox="0 0 45 45" fill="none" xmlns="http://www.w3.org/2000/svg">
<path d="M11.25 41.25C10.2188 41.25 9.33563 40.8825 8.60063 40.1475C7.86563 39.4125 7.49875 38.53 7.5 37.5V7.5C7.5 6.46875 7.8675 5.58563 8.6025 4.85063C9.3375 4.11563 10.22 3.74875 11.25 3.75H24.7031C25.2031 3.75 25.68 3.84375 26.1338 4.03125C26.5875 4.21875 26.9856 4.48438 27.3281 4.82813L36.4219 13.9219C36.7656 14.2656 37.0313 14.6644 37.2188 15.1181C37.4063 15.5719 37.5 16.0481 37.5 16.5469V20.8125L22.5 35.7656V41.25H11.25ZM27.1875 41.25C26.9375 41.25 26.7188 41.1563 26.5313 40.9688C26.3438 40.7813 26.25 40.5625 26.25 40.3125V38.0625C26.25 37.8125 26.305 37.5625 26.415 37.3125C26.525 37.0625 26.6575 36.8594 26.8125 36.7031L35.9063 27.5625L39.9375 31.5L30.7969 40.6875C30.6406 40.875 30.4375 41.0156 30.1875 41.1094C29.9375 41.2031 29.6875 41.25 29.4375 41.25H27.1875ZM41.2969 30.1875L37.3125 26.2031L38.625 24.8906C39 24.5156 39.4531 24.3281 39.9844 24.3281C40.5156 24.3281 40.9531 24.5156 41.2969 24.8906L42.6094 26.25C42.9531 26.625 43.125 27.0706 43.125 27.5869C43.125 28.1031 42.9531 28.5325 42.6094 28.875L41.2969 30.1875ZM26.25 16.875H33.75L24.375 7.5V15C24.375 15.5313 24.555 15.9769 24.915 16.3369C25.275 16.6969 25.72 16.8763 26.25 16.875Z" fill="white"/>
</svg>
