<svg width="111" height="37" viewBox="0 0 111 37" fill="none" xmlns="http://www.w3.org/2000/svg">
<path d="M7.37549 29.0145H13.4205C14.548 29.0149 15.664 29.2417 16.7023 29.6812C17.7407 30.1208 18.6803 30.7642 19.4655 31.5734V6.04498C19.4655 4.44175 18.8286 2.90419 17.6949 1.77053C16.5613 0.63688 15.0237 0 13.4205 0H8.58717C8.26646 0 7.95889 0.127402 7.73211 0.354179C7.50533 0.580955 7.37793 0.888531 7.37793 1.20924L7.37549 29.0145Z" fill="#01B5EC"/>
<path d="M1.20924 35.1862H18.284C18.9558 35.1862 19.5054 35.814 19.5054 36.487C19.5054 33.1256 16.773 30.3101 13.4116 30.3101H6.08285C5.92411 30.3103 5.76689 30.2791 5.62019 30.2185C5.47348 30.1579 5.34016 30.0689 5.22786 29.9567C5.11556 29.8445 5.02647 29.7113 4.96568 29.5647C4.9049 29.418 4.87361 29.2608 4.87361 29.1021V3.6958H1.20924C0.888531 3.6958 0.580956 3.8232 0.354179 4.04998C0.127402 4.27676 6.16943e-07 4.58433 6.16943e-07 4.90504V33.9757C-0.000159891 34.1346 0.0310001 34.292 0.0916983 34.4388C0.152397 34.5857 0.241443 34.7191 0.353748 34.8315C0.466052 34.944 0.599411 35.0331 0.746203 35.094C0.892994 35.1548 1.05034 35.1862 1.20924 35.1862Z" fill="#01B5EC"/>
<path d="M46.1762 30.2514H27.915V9.65332H34.1337V23.706H46.1762V30.2514Z" fill="#01B5EC"/>
<path d="M61.4903 29.7698C61.3848 29.2973 61.3323 28.6414 61.333 27.8021C60.8593 28.5887 60.1379 29.1856 59.1688 29.5928C58.1957 30.0002 57.1507 30.2076 56.0958 30.2028C53.7876 30.2028 51.9708 29.4749 50.6454 28.0191C49.3199 26.5633 48.6572 24.7461 48.6572 22.5677V10.2104H54.6403V21.3087C54.6403 22.3063 54.9091 23.1196 55.4467 23.7485C55.9844 24.3774 56.765 24.6921 57.7888 24.6928C58.7821 24.6928 59.5754 24.3845 60.1689 23.7681C60.7624 23.1516 61.0576 22.3445 61.0545 21.3469V10.2104H67.0367V26.2674C67.0297 27.4378 67.0956 28.6076 67.2341 29.7698H61.4903Z" fill="#01B5EC"/>
<path d="M81.2866 15.1252C80.0009 15.1252 78.9315 15.5598 78.0785 16.4289C77.2255 17.2981 76.7993 18.4919 76.8 20.0104C76.8 21.5059 77.2395 22.6855 78.1186 23.549C78.9976 24.4126 80.0797 24.8453 81.3648 24.8472C82.44 24.8472 83.3256 24.5653 84.0216 24.0016C84.6913 23.4754 85.1797 22.7528 85.4184 21.9352L90.6928 23.549C90.221 25.4115 89.1656 27.0119 87.5267 28.3504C85.8877 29.6889 83.8338 30.3587 81.3648 30.36C78.4259 30.36 75.9398 29.3828 73.9067 27.4285C71.8735 25.4742 70.8569 23.0012 70.8569 20.0095C70.8569 16.9923 71.8474 14.5063 73.8285 12.5513C75.8095 10.5964 78.2561 9.61925 81.1683 9.61987C83.7136 9.61987 85.7996 10.2758 87.4261 11.5875C89.0526 12.8993 90.1021 14.5134 90.5745 16.4299L85.2219 18.0437C85.0008 17.2274 84.5335 16.499 83.8837 15.9577C83.2282 15.4027 82.3624 15.1252 81.2866 15.1252Z" fill="#01B5EC"/>
<path d="M93.1328 24.3776C93.1328 22.725 93.6707 21.3937 94.7466 20.3836C95.8225 19.3735 97.2131 18.7372 98.9185 18.4746L103.522 17.7659C104.467 17.6343 104.94 17.1883 104.94 16.4278C104.94 15.8244 104.684 15.3193 104.172 14.9127C103.661 14.5061 102.959 14.3027 102.067 14.3027C101.069 14.3027 100.275 14.5846 99.6858 15.1483C99.1143 15.6732 98.7685 16.3992 98.7211 17.1737L93.5258 16.1112C93.6574 14.484 94.4645 12.9941 95.947 11.6413C97.4294 10.2886 99.4825 9.61313 102.106 9.61499C105.07 9.61499 107.254 10.3233 108.659 11.74C110.064 13.1567 110.766 14.9679 110.764 17.1737V26.7373C110.764 27.9715 110.843 28.9815 111 29.7675H105.608C105.477 29.2435 105.412 28.5091 105.412 27.5642C104.283 29.4006 102.447 30.3188 99.9018 30.3188C97.829 30.3188 96.1838 29.7349 94.9664 28.5671C93.749 27.3994 93.1378 26.0029 93.1328 24.3776ZM101.358 25.9914C102.381 25.9914 103.234 25.6897 103.916 25.0863C104.599 24.4828 104.94 23.4858 104.941 22.0952V21.2291L101.241 21.8195C99.7715 22.0561 99.0367 22.7778 99.0367 23.9846C99.0325 24.2469 99.0809 24.5073 99.1789 24.7505C99.277 24.9938 99.4227 25.215 99.6076 25.401C99.9869 25.7952 100.57 25.992 101.358 25.9914Z" fill="#01B5EC"/>
</svg>
