<svg width="91" height="30" viewBox="0 0 91 30" fill="none" xmlns="http://www.w3.org/2000/svg">
<g clip-path="url(#clip0_841_4080)">
<path d="M13.59 24.15C14.4345 24.5095 15.1992 25.0329 15.84 25.69V4.92C15.84 3.61513 15.3216 2.36371 14.399 1.44103C13.4763 0.518356 12.2249 0 10.92 0L7 0C6.73478 0 6.48043 0.105357 6.29289 0.292893C6.10536 0.48043 6 0.734784 6 1V23.61H10.92C11.8373 23.6083 12.7455 23.792 13.59 24.15Z" fill="white"/>
<path d="M10.91 24.6601H5.00002C4.87001 24.6617 4.74093 24.6379 4.62002 24.5901C4.49814 24.5418 4.38875 24.4666 4.30002 24.3701C4.17757 24.2869 4.0751 24.1776 4.00002 24.0501C3.97439 23.9281 3.97439 23.8021 4.00002 23.6801V3.00006H1.00002C0.871279 2.99857 0.743604 3.02354 0.624911 3.07343C0.506219 3.12331 0.39904 3.19705 0.310019 3.29006C0.210863 3.37958 0.131927 3.48921 0.0784728 3.61164C0.0250183 3.73407 -0.00172711 3.86649 1.93009e-05 4.00006V27.6401C0.00507979 27.7629 0.0286797 27.8843 0.0700193 28.0001C0.121738 28.1201 0.196481 28.2288 0.290019 28.3201C0.38217 28.41 0.490826 28.4813 0.610019 28.5301C0.727134 28.58 0.852717 28.6072 0.980019 28.6101H14.88C15.1515 28.623 15.4074 28.7407 15.5938 28.9383C15.7803 29.136 15.8829 29.3983 15.88 29.6701C15.8827 28.3474 15.3612 27.0776 14.4297 26.1386C13.4982 25.1997 12.2326 24.668 10.91 24.6601Z" fill="white"/>
<path d="M27.77 7.8501H22.71V24.6101H37.57V19.2901H27.77V7.8501Z" fill="white"/>
<path d="M54.54 8.31006H49.68V17.3701C49.7002 17.7355 49.646 18.1012 49.5205 18.4451C49.395 18.7889 49.2009 19.1036 48.95 19.3701C48.6986 19.6231 48.397 19.8206 48.0646 19.9498C47.7321 20.079 47.3763 20.137 47.02 20.1201C46.6644 20.1422 46.3083 20.0846 45.9778 19.9513C45.6473 19.8181 45.3508 19.6127 45.11 19.3501C44.6591 18.7837 44.4283 18.0733 44.46 17.3501V8.35006H39.59V18.3501C39.5396 19.9832 40.1197 21.5731 41.21 22.7901C41.7759 23.3887 42.4652 23.857 43.2302 24.1627C43.9951 24.4683 44.8174 24.6039 45.64 24.5601C46.498 24.5687 47.3487 24.4019 48.14 24.0701C48.8709 23.7895 49.4893 23.2765 49.9 22.6101C49.8853 23.1465 49.9289 23.683 50.03 24.2101H54.7C54.5916 23.2639 54.5382 22.3124 54.54 21.3601V8.31006Z" fill="white"/>
<path d="M68.36 19.53C67.7445 20.0087 66.979 20.2533 66.2 20.22C65.7115 20.2285 65.2262 20.1391 64.7728 19.957C64.3194 19.775 63.907 19.504 63.56 19.16C63.192 18.7802 62.9069 18.3281 62.7227 17.8323C62.5385 17.3366 62.4593 16.808 62.49 16.28C62.4524 15.7527 62.5216 15.2231 62.6934 14.7231C62.8652 14.2231 63.1362 13.7629 63.49 13.37C63.8272 13.0212 64.2335 12.7467 64.683 12.5641C65.1324 12.3816 65.6151 12.295 66.1 12.31C66.8611 12.2716 67.6105 12.5096 68.21 12.98C68.7386 13.422 69.119 14.0153 69.3 14.68L73.65 13.37C73.2701 11.8036 72.367 10.4137 71.09 9.43003C69.633 8.31725 67.8317 7.75102 66 7.83003C64.8859 7.80368 63.7782 8.0047 62.7444 8.4208C61.7106 8.8369 60.7724 9.45936 59.9872 10.2502C59.2021 11.041 58.5863 11.9835 58.1776 13.0203C57.7688 14.057 57.5757 15.1662 57.61 16.28C57.5811 17.3979 57.7868 18.5095 58.214 19.5429C58.6412 20.5764 59.2803 21.5088 60.09 22.28C60.8949 23.0715 61.8503 23.6935 62.8998 24.1092C63.9493 24.5248 65.0715 24.7257 66.2 24.7C68.0071 24.7655 69.7788 24.1879 71.2 23.07C72.4679 22.0871 73.375 20.7123 73.78 19.16L69.5 17.85C69.3024 18.5142 68.9042 19.101 68.36 19.53Z" fill="white"/>
<path d="M90.12 21.7499V13.9999C90.15 13.1857 90.0139 12.3738 89.7199 11.6139C89.4259 10.854 88.9802 10.1619 88.41 9.57991C87.26 8.42991 85.49 7.84991 83.08 7.84991C81.2645 7.74692 79.4776 8.33661 78.08 9.49991C76.9657 10.4073 76.2484 11.7128 76.08 13.1399L80.31 13.9999C80.3494 13.3683 80.6327 12.7766 81.1 12.3499C81.6138 11.944 82.2409 11.7077 82.8948 11.6737C83.5486 11.6396 84.1969 11.8095 84.75 12.1599C84.9437 12.3032 85.1008 12.4902 85.2085 12.7057C85.3163 12.9211 85.3716 13.159 85.37 13.3999C85.37 14.0099 84.99 14.3999 84.22 14.4799L80.48 14.9999C79.2167 15.1528 78.0321 15.6944 77.09 16.5499C76.6532 16.9674 76.3104 17.4732 76.0845 18.0336C75.8586 18.594 75.7548 19.1962 75.78 19.7999C75.7747 20.4411 75.9046 21.0762 76.1613 21.6638C76.4181 22.2514 76.7959 22.7782 77.27 23.2099C78.3615 24.1972 79.8 24.7115 81.27 24.6399C82.1511 24.7081 83.0342 24.5357 83.825 24.1412C84.6157 23.7467 85.2846 23.1448 85.76 22.3999C85.7422 23.0008 85.7959 23.6017 85.92 24.1899H90.3C90.1624 23.3842 90.1022 22.5671 90.12 21.7499ZM85.38 17.9999C85.422 18.4407 85.3697 18.8853 85.2266 19.3043C85.0835 19.7232 84.8529 20.107 84.55 20.4299C83.9759 20.932 83.2322 21.1966 82.47 21.1699C82.2036 21.1941 81.9351 21.1622 81.6819 21.076C81.4287 20.9899 81.1964 20.8515 81 20.6699C80.8487 20.5188 80.7296 20.3384 80.65 20.1399C80.5731 19.939 80.5358 19.725 80.54 19.5099C80.54 18.5099 81.14 17.9499 82.33 17.7499L85.33 17.2699L85.38 17.9999Z" fill="white"/>
</g>
<defs>
<clipPath id="clip0_841_4080">
<rect width="90.31" height="29.69" fill="white"/>
</clipPath>
</defs>
</svg>
