<svg width="105" height="28" viewBox="0 0 105 28" fill="none" xmlns="http://www.w3.org/2000/svg">
<g clip-path="url(#clip0_551_4305)">
<path d="M34.0594 21.4155H45.2039V26.1218H33.4555C30.1615 26.1218 28.8769 24.4487 28.8769 21.8041V2.64453H34.0594V21.4155Z" fill="white"/>
<path d="M59.5326 16.8387V8.85107H64.5723V17.4324C64.5723 22.4948 61.5199 26.575 55.6347 26.575C49.7496 26.575 46.7301 22.4948 46.7301 17.4324V8.85107H51.7698V16.8819C51.7698 19.5264 53.0435 21.7932 55.6347 21.7932C58.226 21.7932 59.5326 19.5265 59.5326 16.8387Z" fill="white"/>
<path d="M66.9879 17.4758C66.9906 16.2656 67.238 15.068 67.7157 13.9526C68.1934 12.8372 68.8918 11.8263 69.7705 10.9786C70.6491 10.1309 71.6903 9.46336 72.8336 9.01477C73.977 8.56618 75.1996 8.3455 76.4305 8.36553C78.1185 8.31026 79.7858 8.74437 81.2247 9.61383C82.6636 10.4833 83.8105 11.7497 84.5226 13.2553L80.3723 15.4465C80.014 14.7174 79.4544 14.1021 78.7574 13.6707C78.0604 13.2394 77.2541 13.0094 76.4305 13.007C75.2736 13.0632 74.1829 13.5545 73.3843 14.3793C72.5857 15.2041 72.1403 16.2993 72.1403 17.438C72.1403 18.5767 72.5857 19.6719 73.3843 20.4967C74.1829 21.3215 75.2736 21.8129 76.4305 21.869C77.2541 21.8666 78.0604 21.6366 78.7574 21.2053C79.4544 20.7739 80.014 20.1586 80.3723 19.4295L84.5226 21.6639C83.8077 23.1666 82.6598 24.43 81.2213 25.2973C79.7829 26.1646 78.117 26.5977 76.4305 26.5429C75.2041 26.56 73.9863 26.3387 72.8472 25.8918C71.708 25.4448 70.6699 24.781 69.7925 23.9385C68.915 23.096 68.2156 22.0913 67.7343 20.9822C67.253 19.8732 66.9993 18.6815 66.9879 17.4758Z" fill="white"/>
<path d="M85.939 17.4326C85.9504 16.2198 86.206 15.0213 86.691 13.9061C87.176 12.791 87.8809 11.7813 88.7649 10.9354C89.6489 10.0894 90.6945 9.42386 91.8415 8.97724C92.9885 8.53061 94.2141 8.31171 95.4476 8.33314C96.6909 8.28179 97.9319 8.47982 99.0949 8.91517C100.258 9.35053 101.319 10.0141 102.212 10.8654C103.106 11.7168 103.814 12.738 104.293 13.8671C104.773 14.9961 105.013 16.2093 105 17.4326V26.1219H100.202V24.0818C99.5305 24.8878 98.6788 25.5302 97.7131 25.959C96.7474 26.3878 95.694 26.5913 94.635 26.5537C89.5294 26.5752 85.939 22.4627 85.939 17.4326ZM99.9603 17.4326C99.9516 16.5622 99.6814 15.7138 99.1837 14.994C98.686 14.2742 97.9829 13.715 97.1629 13.3868C96.3429 13.0587 95.4424 12.9761 94.5748 13.1496C93.7072 13.323 92.9111 13.7447 92.2866 14.3617C91.6621 14.9786 91.237 15.7633 91.0648 16.6171C90.8925 17.4708 90.9809 18.3556 91.3187 19.1602C91.6564 19.9647 92.2286 20.6532 92.9633 21.139C93.6979 21.6248 94.5622 21.8863 95.4476 21.8906C96.0395 21.8949 96.6265 21.7837 97.1745 21.5637C97.7226 21.3436 98.2208 21.0189 98.6404 20.6084C99.0601 20.1979 99.3928 19.7096 99.6193 19.1719C99.8458 18.6343 99.9617 18.0578 99.9603 17.4758V17.4326Z" fill="white"/>
<path d="M11.3641 23.7149H5.43499C5.14849 23.7166 4.87268 23.6082 4.6664 23.4127C4.56978 23.3116 4.49176 23.1947 4.43583 23.0673C4.38333 22.9368 4.35722 22.7974 4.35897 22.6571V2.49365H1.06502C0.77382 2.49365 0.494543 2.60739 0.288632 2.80982C0.0827201 3.01225 -0.032959 3.28679 -0.032959 3.57307V26.9424C-0.029666 27.0822 -0.00372141 27.2207 0.0438994 27.3526C0.100686 27.4821 0.182753 27.5995 0.285457 27.698C0.383522 27.7988 0.503686 27.8763 0.636811 27.9246C0.765401 27.9786 0.903283 28.0079 1.04306 28.011H17.6445C17.6445 28.011 15.4815 23.7797 11.3641 23.7149Z" fill="white"/>
<path d="M14.5263 0H8.169C7.84286 0 7.53007 0.127363 7.29945 0.354084C7.06883 0.580805 6.93927 0.888307 6.93927 1.20894V11.7656V20.8435C6.94214 21.1661 7.07377 21.4747 7.30584 21.7029C7.5379 21.931 7.85181 22.0604 8.17999 22.0632H12.3413C13.4584 22.042 14.5639 22.2884 15.5625 22.7811C16.561 23.2738 17.4226 23.9981 18.0728 24.8913V3.48652C18.0728 3.02866 17.9811 2.57528 17.8028 2.15227C17.6246 1.72927 17.3634 1.34493 17.0341 1.02117C16.7047 0.697422 16.3138 0.44062 15.8835 0.265406C15.4532 0.0901931 14.9921 0 14.5263 0Z" fill="white"/>
</g>
<defs>
<clipPath id="clip0_551_4305">
<rect width="105" height="28" fill="white"/>
</clipPath>
</defs>
</svg>
