<svg width="105" height="28" viewBox="0 0 105 28" fill="none" xmlns="http://www.w3.org/2000/svg">
<g clip-path="url(#clip0_551_4326)">
<path d="M34.0594 21.4156H45.2039V26.1218H33.4555C30.1615 26.1218 28.8769 24.4488 28.8769 21.8042V2.64459H34.0594V21.4156Z" fill="#1D214C"/>
<path d="M59.5326 16.8389V8.8512H64.5723V17.4325C64.5723 22.495 61.5199 26.5752 55.6347 26.5752C49.7496 26.5752 46.7301 22.495 46.7301 17.4325V8.8512H51.7698V16.882C51.7698 19.5266 53.0435 21.7934 55.6347 21.7934C58.226 21.7934 59.5326 19.5266 59.5326 16.8389Z" fill="#1D214C"/>
<path d="M66.9879 17.4757C66.9906 16.2655 67.238 15.0679 67.7157 13.9525C68.1934 12.8371 68.8918 11.8262 69.7705 10.9785C70.6491 10.1308 71.6903 9.4633 72.8336 9.01471C73.977 8.56612 75.1996 8.34544 76.4305 8.36547C78.1185 8.3102 79.7858 8.74431 81.2247 9.61377C82.6636 10.4832 83.8105 11.7496 84.5226 13.2552L80.3723 15.4464C80.014 14.7174 79.4544 14.102 78.7574 13.6707C78.0604 13.2393 77.2541 13.0093 76.4305 13.0069C75.2736 13.0631 74.1829 13.5544 73.3843 14.3793C72.5857 15.2041 72.1403 16.2992 72.1403 17.4379C72.1403 18.5767 72.5857 19.6718 73.3843 20.4966C74.1829 21.3214 75.2736 21.8128 76.4305 21.869C77.2541 21.8666 78.0604 21.6366 78.7574 21.2052C79.4544 20.7739 80.014 20.1585 80.3723 19.4295L84.5226 21.6639C83.8077 23.1666 82.6598 24.4299 81.2213 25.2972C79.7829 26.1645 78.117 26.5976 76.4305 26.5428C75.2041 26.5599 73.9863 26.3387 72.8472 25.8917C71.708 25.4448 70.6699 24.781 69.7925 23.9384C68.915 23.0959 68.2156 22.0913 67.7343 20.9822C67.253 19.8731 66.9993 18.6815 66.9879 17.4757Z" fill="#1D214C"/>
<path d="M85.939 17.4325C85.9504 16.2198 86.206 15.0212 86.691 13.9061C87.176 12.7909 87.8809 11.7813 88.7649 10.9353C89.6489 10.0893 90.6945 9.4238 91.8415 8.97717C92.9885 8.53055 94.2141 8.31165 95.4476 8.33308C96.6909 8.28173 97.9319 8.47976 99.0949 8.91511C100.258 9.35047 101.319 10.014 102.212 10.8654C103.106 11.7167 103.814 12.738 104.293 13.867C104.773 14.9961 105.013 16.2092 105 17.4325V26.1218H100.202V24.0817C99.5305 24.8877 98.6788 25.5302 97.7131 25.959C96.7474 26.3878 95.694 26.5913 94.635 26.5536C89.5294 26.5752 85.939 22.4626 85.939 17.4325ZM99.9603 17.4325C99.9516 16.5622 99.6814 15.7138 99.1837 14.9939C98.686 14.2741 97.9829 13.7149 97.1629 13.3868C96.3429 13.0586 95.4424 12.976 94.5748 13.1495C93.7072 13.3229 92.9111 13.7447 92.2866 14.3616C91.6621 14.9786 91.237 15.7632 91.0648 16.617C90.8925 17.4708 90.9809 18.3556 91.3187 19.1601C91.6564 19.9647 92.2286 20.6531 92.9633 21.1389C93.6979 21.6247 94.5622 21.8862 95.4476 21.8905C96.0395 21.8948 96.6265 21.7837 97.1745 21.5636C97.7226 21.3435 98.2208 21.0188 98.6404 20.6083C99.0601 20.1978 99.3928 19.7096 99.6193 19.1719C99.8458 18.6342 99.9617 18.0577 99.9603 17.4757V17.4325Z" fill="#1D214C"/>
<path d="M11.3641 23.7147H5.43499C5.14849 23.7164 4.87268 23.608 4.6664 23.4125C4.56978 23.3113 4.49176 23.1945 4.43583 23.0671C4.38333 22.9366 4.35722 22.7972 4.35897 22.6569V2.49344H1.06502C0.77382 2.49344 0.494543 2.60718 0.288632 2.80961C0.0827201 3.01204 -0.032959 3.28657 -0.032959 3.57285V26.9422C-0.029666 27.082 -0.00372141 27.2205 0.0438994 27.3523C0.100686 27.4819 0.182753 27.5993 0.285457 27.6978C0.383522 27.7986 0.503686 27.8761 0.636811 27.9244C0.765401 27.9784 0.903283 28.0077 1.04306 28.0108H17.6445C17.6445 28.0108 15.4815 23.7795 11.3641 23.7147Z" fill="#1D214C"/>
<path d="M14.5263 0H8.169C7.84286 0 7.53007 0.127363 7.29945 0.354084C7.06883 0.580805 6.93927 0.888307 6.93927 1.20894V11.7656V20.8435C6.94214 21.1661 7.07377 21.4747 7.30584 21.7029C7.5379 21.931 7.85181 22.0604 8.17999 22.0632H12.3413C13.4584 22.042 14.5639 22.2884 15.5625 22.7811C16.561 23.2738 17.4226 23.9981 18.0728 24.8913V3.48652C18.0728 3.02866 17.9811 2.57528 17.8028 2.15227C17.6246 1.72927 17.3634 1.34493 17.0341 1.02117C16.7047 0.697422 16.3138 0.44062 15.8835 0.265406C15.4532 0.0901931 14.9921 0 14.5263 0Z" fill="#1D214C"/>
</g>
<defs>
<clipPath id="clip0_551_4326">
<rect width="105" height="28" fill="white"/>
</clipPath>
</defs>
</svg>
