<svg width="250" height="83" viewBox="0 0 250 83" fill="none" xmlns="http://www.w3.org/2000/svg">
<path d="M16.6113 65.3479H30.2262C32.7657 65.349 35.2791 65.8596 37.6178 66.8496C39.9564 67.8396 42.0725 69.2888 43.841 71.1113V13.6148C43.841 10.004 42.4066 6.54097 39.8533 3.98769C37.3 1.43442 33.837 0 30.2262 0H19.3403C18.618 0 17.9253 0.286941 17.4145 0.7977C16.9038 1.30846 16.6168 2.0012 16.6168 2.72352L16.6113 65.3479Z" fill="#01B5EC"/>
<path d="M2.72352 79.2477H41.1801C42.6932 79.2477 43.9311 80.6617 43.9311 82.1776C43.9311 74.6067 37.7771 68.2656 30.2063 68.2656H13.7001C13.3426 68.266 12.9885 68.1959 12.6581 68.0593C12.3277 67.9227 12.0274 67.7224 11.7745 67.4697C11.5215 67.217 11.3209 66.917 11.184 66.5867C11.0471 66.2564 10.9766 65.9024 10.9766 65.5448V8.32349H2.72352C2.0012 8.32349 1.30846 8.61043 0.797701 9.12119C0.286942 9.63194 1.38951e-06 10.3247 1.38951e-06 11.047V76.5214C-0.000360114 76.8793 0.0698201 77.2338 0.206528 77.5645C0.343235 77.8953 0.543791 78.1959 0.796729 78.449C1.04967 78.7022 1.35003 78.9031 1.68064 79.0401C2.01125 79.1772 2.36563 79.2477 2.72352 79.2477Z" fill="#01B5EC"/>
<path d="M104.001 68.133H62.8721V21.741H76.8781V53.3912H104.001V68.133Z" fill="#01B5EC"/>
<path d="M138.493 67.0496C138.255 65.9855 138.137 64.5083 138.138 62.6179C137.071 64.3894 135.447 65.7338 133.264 66.6511C131.073 67.5685 128.719 68.0357 126.343 68.0248C121.144 68.0248 117.052 66.3854 114.067 63.1066C111.082 59.8277 109.589 55.7351 109.589 50.8287V22.9971H123.065V47.9931C123.065 50.2401 123.67 52.0718 124.881 53.4882C126.092 54.9046 127.85 55.6135 130.156 55.6149C132.393 55.6149 134.18 54.9207 135.517 53.5322C136.853 52.1438 137.518 50.3261 137.511 48.0791V22.9971H150.985V59.1615C150.969 61.7975 151.117 64.432 151.429 67.0496H138.493Z" fill="#01B5EC"/>
<path d="M183.078 34.0662C180.182 34.0662 177.774 35.045 175.853 37.0025C173.931 38.96 172.971 41.6488 172.973 45.0689C172.973 48.4372 173.963 51.0938 175.943 53.0387C177.923 54.9837 180.36 55.9582 183.254 55.9624C185.676 55.9624 187.67 55.3276 189.238 54.058C190.746 52.8728 191.846 51.2455 192.384 49.4041L204.263 53.0387C203.2 57.2334 200.823 60.838 197.132 63.8526C193.441 66.8672 188.815 68.3759 183.254 68.3787C176.635 68.3787 171.036 66.1779 166.456 61.7763C161.877 57.3746 159.588 51.8048 159.588 45.0668C159.588 38.2714 161.819 32.6722 166.28 28.2692C170.742 23.8662 176.252 21.6654 182.811 21.6667C188.544 21.6667 193.242 23.144 196.906 26.0984C200.569 29.0529 202.933 32.6883 203.997 37.0046L191.941 40.6393C191.443 38.8008 190.391 37.1603 188.927 35.9412C187.451 34.6912 185.501 34.0662 183.078 34.0662Z" fill="#01B5EC"/>
<path d="M209.759 54.9049C209.759 51.1828 210.97 48.1843 213.393 45.9094C215.816 43.6345 218.948 42.2013 222.789 41.6098L233.159 40.0138C235.287 39.7174 236.351 38.7127 236.351 36.9999C236.351 35.6408 235.775 34.5034 234.622 33.5875C233.47 32.6717 231.89 32.2138 229.88 32.2138C227.632 32.2138 225.844 32.8486 224.518 34.1182C223.23 35.3004 222.452 36.9355 222.345 38.6799L210.644 36.2868C210.94 32.6221 212.758 29.2663 216.097 26.2196C219.436 23.1728 224.06 21.6516 229.968 21.6558C236.644 21.6558 241.563 23.2511 244.727 26.4419C247.892 29.6326 249.472 33.712 249.47 38.6799V60.2195C249.47 62.9992 249.646 65.2741 250 67.0443H237.857C237.562 65.8642 237.414 64.2101 237.414 62.082C234.872 66.2179 230.735 68.2859 225.004 68.2859C220.335 68.2859 216.63 66.9709 213.888 64.3408C211.146 61.7107 209.77 58.5654 209.759 54.9049ZM228.284 58.5396C230.589 58.5396 232.509 57.86 234.046 56.501C235.582 55.1419 236.351 52.8963 236.353 49.7643V47.8138L228.02 49.1435C224.71 49.6762 223.056 51.3017 223.056 54.0198C223.046 54.6104 223.155 55.197 223.376 55.7448C223.597 56.2927 223.925 56.7908 224.341 57.2099C225.196 58.0977 226.51 58.541 228.284 58.5396Z" fill="#01B5EC"/>
</svg>
