<svg width="694" height="528" viewBox="0 0 694 528" fill="none" xmlns="http://www.w3.org/2000/svg">
<g filter="url(#filter0_d_548_4031)">
<rect x="300" y="184" width="367" height="315" rx="10" fill="white"/>
</g>
<path d="M322.256 224.956V218.536H324.02C325.592 218.536 326.888 219.616 326.888 221.764C326.888 223.9 325.568 224.956 323.996 224.956H322.256ZM324.032 226C326.192 226 328.1 224.548 328.1 221.764C328.1 218.968 326.216 217.492 324.056 217.492H321.08V226H324.032ZM330.329 222.52C330.377 221.776 330.953 221.044 331.901 221.044C332.921 221.044 333.461 221.692 333.485 222.52H330.329ZM333.653 224.02C333.437 224.668 332.969 225.184 332.033 225.184C331.061 225.184 330.317 224.464 330.293 223.432H334.637C334.649 223.36 334.661 223.216 334.661 223.072C334.661 221.272 333.665 220.048 331.889 220.048C330.437 220.048 329.129 221.284 329.129 223.096C329.129 225.052 330.485 226.18 332.033 226.18C333.377 226.18 334.301 225.376 334.625 224.356L333.653 224.02ZM335.561 224.5C335.657 225.16 336.329 226.18 337.913 226.18C339.341 226.18 340.025 225.208 340.025 224.392C340.025 223.54 339.473 222.904 338.429 222.676L337.493 222.472C337.049 222.376 336.833 222.124 336.833 221.776C336.833 221.38 337.217 221.008 337.793 221.008C338.705 221.008 338.945 221.668 338.993 221.968L339.989 221.596C339.869 221.08 339.377 220.048 337.793 220.048C336.665 220.048 335.741 220.888 335.741 221.872C335.741 222.688 336.281 223.3 337.181 223.492L338.165 223.708C338.645 223.816 338.909 224.092 338.909 224.452C338.909 224.86 338.561 225.22 337.925 225.22C337.109 225.22 336.653 224.74 336.581 224.14L335.561 224.5ZM343.892 221.092C344.876 221.092 345.296 221.752 345.44 222.316L346.46 221.884C346.22 221.008 345.428 220.048 343.892 220.048C342.248 220.048 340.988 221.308 340.988 223.108C340.988 224.86 342.224 226.18 343.904 226.18C345.404 226.18 346.232 225.208 346.508 224.38L345.512 223.948C345.38 224.404 344.984 225.136 343.904 225.136C342.968 225.136 342.14 224.428 342.14 223.108C342.14 221.764 342.98 221.092 343.892 221.092ZM351.035 220.168C350.975 220.156 350.819 220.132 350.663 220.132C350.075 220.132 349.355 220.348 348.935 221.236V220.228H347.831V226H348.959V223.108C348.959 221.836 349.595 221.332 350.543 221.332C350.699 221.332 350.867 221.344 351.035 221.368V220.168ZM353.353 226V220.228H352.237V226H353.353ZM351.985 218.044C351.985 218.488 352.345 218.848 352.789 218.848C353.245 218.848 353.605 218.488 353.605 218.044C353.605 217.588 353.245 217.228 352.789 217.228C352.345 217.228 351.985 217.588 351.985 218.044ZM356.389 228.28V225.22C356.701 225.736 357.373 226.156 358.261 226.156C359.953 226.156 360.949 224.824 360.949 223.108C360.949 221.428 360.025 220.096 358.297 220.096C357.361 220.096 356.677 220.552 356.365 221.128V220.228H355.273V228.28H356.389ZM359.797 223.108C359.797 224.296 359.137 225.148 358.093 225.148C357.061 225.148 356.377 224.296 356.377 223.108C356.377 221.956 357.061 221.092 358.093 221.092C359.149 221.092 359.797 221.956 359.797 223.108ZM363.839 218.404H362.807V219.34C362.807 219.844 362.543 220.228 361.919 220.228H361.607V221.248H362.711V224.416C362.711 225.46 363.335 226.06 364.319 226.06C364.703 226.06 364.991 225.988 365.087 225.952V224.992C364.991 225.016 364.787 225.04 364.643 225.04C364.055 225.04 363.839 224.776 363.839 224.248V221.248H365.087V220.228H363.839V218.404ZM367.709 226V220.228H366.593V226H367.709ZM366.341 218.044C366.341 218.488 366.701 218.848 367.145 218.848C367.601 218.848 367.961 218.488 367.961 218.044C367.961 217.588 367.601 217.228 367.145 217.228C366.701 217.228 366.341 217.588 366.341 218.044ZM372.1 225.172C371.14 225.172 370.3 224.452 370.3 223.108C370.3 221.776 371.14 221.056 372.1 221.056C373.06 221.056 373.9 221.776 373.9 223.108C373.9 224.452 373.06 225.172 372.1 225.172ZM372.1 220.048C370.372 220.048 369.148 221.356 369.148 223.108C369.148 224.872 370.372 226.18 372.1 226.18C373.828 226.18 375.052 224.872 375.052 223.108C375.052 221.356 373.828 220.048 372.1 220.048ZM377.623 222.664C377.623 221.788 378.079 221.08 378.967 221.08C379.975 221.08 380.311 221.728 380.311 222.532V226H381.439V222.34C381.439 221.056 380.755 220.06 379.375 220.06C378.703 220.06 378.019 220.336 377.599 221.056V220.228H376.495V226H377.623V222.664Z" fill="#9E9FB2"/>
<path d="M596.877 226V224.416H593.085V217.492H591.429V226H596.877ZM599.62 226V220.096H598.024V226H599.62ZM597.832 218.164C597.832 218.692 598.276 219.136 598.816 219.136C599.368 219.136 599.8 218.692 599.8 218.164C599.8 217.612 599.368 217.168 598.816 217.168C598.276 217.168 597.832 217.612 597.832 218.164ZM600.909 226.324C601.077 227.452 602.157 228.46 603.777 228.46C605.997 228.46 606.873 226.984 606.873 225.364V220.096H605.337V220.792C605.133 220.396 604.593 219.988 603.657 219.988C602.037 219.988 600.909 221.308 600.909 222.868C600.909 224.524 602.085 225.736 603.657 225.736C604.509 225.736 605.061 225.364 605.301 224.98V225.412C605.301 226.552 604.737 227.056 603.729 227.056C602.973 227.056 602.457 226.588 602.349 225.94L600.909 226.324ZM603.933 224.368C603.105 224.368 602.517 223.792 602.517 222.868C602.517 221.956 603.141 221.38 603.933 221.38C604.701 221.38 605.325 221.956 605.325 222.868C605.325 223.78 604.749 224.368 603.933 224.368ZM610.085 222.532C610.121 221.884 610.517 221.38 611.189 221.38C611.957 221.38 612.281 221.896 612.281 222.556V226H613.877V222.28C613.877 220.984 613.181 219.94 611.681 219.94C611.117 219.94 610.469 220.132 610.085 220.588V217.312H608.489V226H610.085V222.532ZM617.465 218.332H616.025V219.16C616.025 219.688 615.737 220.096 615.113 220.096H614.813V221.512H615.881V224.26C615.881 225.4 616.601 226.084 617.753 226.084C618.221 226.084 618.509 226 618.653 225.94V224.62C618.569 224.644 618.353 224.668 618.161 224.668C617.705 224.668 617.465 224.5 617.465 223.984V221.512H618.653V220.096H617.465V218.332ZM623.058 217.492V226H626.346C627.942 226 628.974 225.004 628.974 223.624C628.974 222.568 628.302 221.812 627.474 221.608C628.182 221.368 628.71 220.66 628.71 219.784C628.71 218.464 627.774 217.492 626.118 217.492H623.058ZM624.69 221.008V218.884H625.854C626.658 218.884 627.078 219.292 627.078 219.94C627.078 220.588 626.622 221.008 625.866 221.008H624.69ZM624.69 224.62V222.376H626.058C626.886 222.376 627.318 222.844 627.318 223.516C627.318 224.2 626.838 224.62 626.034 224.62H624.69ZM634.032 226H635.556C635.532 225.796 635.496 225.388 635.496 224.932V220.096H633.9V223.528C633.9 224.212 633.492 224.692 632.784 224.692C632.04 224.692 631.704 224.164 631.704 223.504V220.096H630.108V223.828C630.108 225.112 630.924 226.156 632.352 226.156C632.976 226.156 633.66 225.916 633.984 225.364C633.984 225.604 634.008 225.88 634.032 226ZM638.796 226V217.312H637.2V226H638.796ZM642.052 226V225.28C642.364 225.784 642.988 226.144 643.804 226.144C645.484 226.144 646.588 224.812 646.588 223.024C646.588 221.272 645.592 219.94 643.864 219.94C642.988 219.94 642.34 220.324 642.076 220.744V217.312H640.504V226H642.052ZM644.992 223.036C644.992 224.116 644.344 224.716 643.528 224.716C642.724 224.716 642.052 224.104 642.052 223.036C642.052 221.956 642.724 221.368 643.528 221.368C644.344 221.368 644.992 221.956 644.992 223.036Z" fill="#3A3A3C"/>
<path d="M647 248H320V250H647V248Z" fill="#F5F5F5" mask="url(#path-3-inside-1_548_4031)"/>
<path d="M326.984 268.584V267.492H320.12V268.584H322.964V276H324.14V268.584H326.984ZM330.551 270.168C330.491 270.156 330.335 270.132 330.179 270.132C329.591 270.132 328.871 270.348 328.451 271.236V270.228H327.347V276H328.475V273.108C328.475 271.836 329.111 271.332 330.059 271.332C330.215 271.332 330.383 271.344 330.551 271.368V270.168ZM331.393 274.452C331.393 275.364 332.149 276.18 333.325 276.18C334.357 276.18 334.933 275.628 335.185 275.22C335.185 275.64 335.221 275.856 335.245 276H336.349C336.325 275.856 336.277 275.556 336.277 275.052V272.16C336.277 271.032 335.605 270.048 333.877 270.048C332.629 270.048 331.633 270.816 331.513 271.92L332.593 272.172C332.665 271.5 333.109 271.008 333.901 271.008C334.777 271.008 335.149 271.476 335.149 272.04C335.149 272.244 335.053 272.424 334.705 272.472L333.145 272.7C332.149 272.844 331.393 273.42 331.393 274.452ZM333.481 275.232C332.905 275.232 332.545 274.824 332.545 274.392C332.545 273.876 332.905 273.6 333.385 273.528L335.149 273.264V273.528C335.149 274.788 334.405 275.232 333.481 275.232ZM339.162 272.664C339.162 271.788 339.618 271.08 340.506 271.08C341.514 271.08 341.85 271.728 341.85 272.532V276H342.978V272.34C342.978 271.056 342.294 270.06 340.914 270.06C340.242 270.06 339.558 270.336 339.138 271.056V270.228H338.034V276H339.162V272.664ZM344.233 274.5C344.329 275.16 345.001 276.18 346.585 276.18C348.013 276.18 348.697 275.208 348.697 274.392C348.697 273.54 348.145 272.904 347.101 272.676L346.165 272.472C345.721 272.376 345.505 272.124 345.505 271.776C345.505 271.38 345.889 271.008 346.465 271.008C347.377 271.008 347.617 271.668 347.665 271.968L348.661 271.596C348.541 271.08 348.049 270.048 346.465 270.048C345.337 270.048 344.413 270.888 344.413 271.872C344.413 272.688 344.953 273.3 345.853 273.492L346.837 273.708C347.317 273.816 347.581 274.092 347.581 274.452C347.581 274.86 347.233 275.22 346.597 275.22C345.781 275.22 345.325 274.74 345.253 274.14L344.233 274.5ZM349.721 274.452C349.721 275.364 350.477 276.18 351.653 276.18C352.685 276.18 353.261 275.628 353.513 275.22C353.513 275.64 353.549 275.856 353.573 276H354.677C354.653 275.856 354.605 275.556 354.605 275.052V272.16C354.605 271.032 353.933 270.048 352.205 270.048C350.957 270.048 349.961 270.816 349.841 271.92L350.921 272.172C350.993 271.5 351.437 271.008 352.229 271.008C353.105 271.008 353.477 271.476 353.477 272.04C353.477 272.244 353.381 272.424 353.033 272.472L351.473 272.7C350.477 272.844 349.721 273.42 349.721 274.452ZM351.809 275.232C351.233 275.232 350.873 274.824 350.873 274.392C350.873 273.876 351.233 273.6 351.713 273.528L353.477 273.264V273.528C353.477 274.788 352.733 275.232 351.809 275.232ZM358.786 271.092C359.77 271.092 360.19 271.752 360.334 272.316L361.354 271.884C361.114 271.008 360.322 270.048 358.786 270.048C357.142 270.048 355.882 271.308 355.882 273.108C355.882 274.86 357.118 276.18 358.798 276.18C360.298 276.18 361.126 275.208 361.402 274.38L360.406 273.948C360.274 274.404 359.878 275.136 358.798 275.136C357.862 275.136 357.034 274.428 357.034 273.108C357.034 271.764 357.874 271.092 358.786 271.092ZM364.238 268.404H363.206V269.34C363.206 269.844 362.942 270.228 362.318 270.228H362.006V271.248H363.11V274.416C363.11 275.46 363.734 276.06 364.718 276.06C365.102 276.06 365.39 275.988 365.486 275.952V274.992C365.39 275.016 365.186 275.04 365.042 275.04C364.454 275.04 364.238 274.776 364.238 274.248V271.248H365.486V270.228H364.238V268.404ZM368.107 276V270.228H366.991V276H368.107ZM366.739 268.044C366.739 268.488 367.099 268.848 367.543 268.848C367.999 268.848 368.359 268.488 368.359 268.044C368.359 267.588 367.999 267.228 367.543 267.228C367.099 267.228 366.739 267.588 366.739 268.044ZM372.498 275.172C371.538 275.172 370.698 274.452 370.698 273.108C370.698 271.776 371.538 271.056 372.498 271.056C373.458 271.056 374.298 271.776 374.298 273.108C374.298 274.452 373.458 275.172 372.498 275.172ZM372.498 270.048C370.77 270.048 369.546 271.356 369.546 273.108C369.546 274.872 370.77 276.18 372.498 276.18C374.226 276.18 375.45 274.872 375.45 273.108C375.45 271.356 374.226 270.048 372.498 270.048ZM378.022 272.664C378.022 271.788 378.478 271.08 379.366 271.08C380.374 271.08 380.71 271.728 380.71 272.532V276H381.838V272.34C381.838 271.056 381.154 270.06 379.774 270.06C379.102 270.06 378.418 270.336 377.998 271.056V270.228H376.894V276H378.022V272.664ZM387.928 274.956V268.536H389.692C391.264 268.536 392.56 269.616 392.56 271.764C392.56 273.9 391.24 274.956 389.668 274.956H387.928ZM389.704 276C391.864 276 393.772 274.548 393.772 271.764C393.772 268.968 391.888 267.492 389.728 267.492H386.752V276H389.704ZM394.909 274.452C394.909 275.364 395.665 276.18 396.841 276.18C397.873 276.18 398.449 275.628 398.701 275.22C398.701 275.64 398.737 275.856 398.761 276H399.865C399.841 275.856 399.793 275.556 399.793 275.052V272.16C399.793 271.032 399.121 270.048 397.393 270.048C396.145 270.048 395.149 270.816 395.029 271.92L396.109 272.172C396.181 271.5 396.625 271.008 397.417 271.008C398.293 271.008 398.665 271.476 398.665 272.04C398.665 272.244 398.569 272.424 398.221 272.472L396.661 272.7C395.665 272.844 394.909 273.42 394.909 274.452ZM396.997 275.232C396.421 275.232 396.061 274.824 396.061 274.392C396.061 273.876 396.421 273.6 396.901 273.528L398.665 273.264V273.528C398.665 274.788 397.921 275.232 396.997 275.232ZM403.062 268.404H402.03V269.34C402.03 269.844 401.766 270.228 401.142 270.228H400.83V271.248H401.934V274.416C401.934 275.46 402.558 276.06 403.542 276.06C403.926 276.06 404.214 275.988 404.31 275.952V274.992C404.214 275.016 404.01 275.04 403.866 275.04C403.278 275.04 403.062 274.776 403.062 274.248V271.248H404.31V270.228H403.062V268.404ZM406.489 272.52C406.537 271.776 407.113 271.044 408.061 271.044C409.081 271.044 409.621 271.692 409.645 272.52H406.489ZM409.813 274.02C409.597 274.668 409.129 275.184 408.193 275.184C407.221 275.184 406.477 274.464 406.453 273.432H410.797C410.809 273.36 410.821 273.216 410.821 273.072C410.821 271.272 409.825 270.048 408.049 270.048C406.597 270.048 405.289 271.284 405.289 273.096C405.289 275.052 406.645 276.18 408.193 276.18C409.537 276.18 410.461 275.376 410.785 274.356L409.813 274.02Z" fill="#9E9FB2"/>
<path d="M595.394 272.112C595.394 271.296 595.514 270.6 595.814 270.132C596.054 269.748 596.426 269.496 596.99 269.496C597.566 269.496 597.914 269.748 598.154 270.132C598.466 270.6 598.586 271.296 598.586 272.112C598.586 272.928 598.466 273.624 598.154 274.092C597.914 274.476 597.566 274.728 596.99 274.728C596.426 274.728 596.054 274.476 595.814 274.092C595.514 273.624 595.394 272.928 595.394 272.112ZM593.738 272.112C593.738 273.108 593.894 274.08 594.422 274.884C594.938 275.652 595.778 276.192 596.99 276.192C598.202 276.192 599.042 275.652 599.546 274.884C600.074 274.08 600.242 273.108 600.242 272.112C600.242 271.116 600.074 270.144 599.546 269.34C599.042 268.572 598.202 268.032 596.99 268.032C595.778 268.032 594.938 268.572 594.422 269.34C593.894 270.144 593.738 271.116 593.738 272.112ZM604.493 276V268.212H603.065C602.909 269.028 602.117 269.664 600.977 269.676V270.792H602.849V276H604.493ZM618.792 276V267.492H616.536L614.04 273.636L611.484 267.492H609.3V276H610.884V270.084L613.332 276H614.712L617.16 270.036V276H618.792ZM620.234 274.392C620.234 275.316 621.002 276.168 622.262 276.168C623.138 276.168 623.702 275.76 624.002 275.292C624.002 275.52 624.026 275.844 624.062 276H625.526C625.49 275.796 625.454 275.376 625.454 275.064V272.16C625.454 270.972 624.758 269.916 622.886 269.916C621.302 269.916 620.45 270.936 620.354 271.86L621.77 272.16C621.818 271.644 622.202 271.2 622.898 271.2C623.57 271.2 623.894 271.548 623.894 271.968C623.894 272.172 623.786 272.34 623.45 272.388L621.998 272.604C621.014 272.748 620.234 273.336 620.234 274.392ZM622.598 274.98C622.082 274.98 621.83 274.644 621.83 274.296C621.83 273.84 622.154 273.612 622.562 273.552L623.894 273.348V273.612C623.894 274.656 623.27 274.98 622.598 274.98ZM630.663 270.072C630.543 270.06 630.423 270.048 630.291 270.048C629.787 270.048 628.971 270.192 628.611 270.972V270.096H627.063V276H628.659V273.3C628.659 272.028 629.367 271.632 630.183 271.632C630.327 271.632 630.483 271.644 630.663 271.68V270.072ZM635.939 271.224C635.903 271.092 635.879 270.936 635.879 270.792C635.879 270.06 636.287 269.496 637.115 269.496C637.895 269.496 638.291 270 638.291 270.564C638.291 271.104 638.027 271.512 637.367 271.908L636.083 272.676C634.691 273.516 634.259 274.632 634.247 276H640.007V274.572H636.275C636.395 274.272 636.647 274.056 636.947 273.864L638.447 272.952C639.407 272.364 639.959 271.548 639.959 270.54C639.959 269.184 638.891 268.032 637.151 268.032C635.339 268.032 634.307 269.268 634.307 270.636C634.307 270.828 634.343 271.068 634.367 271.176L635.939 271.224ZM642.982 272.544C643.15 272.484 643.354 272.424 643.69 272.424C644.434 272.424 644.962 272.844 644.962 273.576C644.962 274.224 644.47 274.752 643.642 274.752C642.826 274.752 642.262 274.176 642.226 273.384L640.63 273.696C640.726 275.004 641.83 276.18 643.642 276.18C645.526 276.18 646.63 274.944 646.63 273.6C646.63 272.172 645.55 271.272 644.374 271.224L646.39 269.544V268.212H640.882V269.64H644.29L642.25 271.392L642.982 272.544Z" fill="#3A3A3C"/>
<path d="M647 298H320V300H647V298Z" fill="#F5F5F5" mask="url(#path-7-inside-2_548_4031)"/>
<path d="M322.256 324.956V318.536H324.02C325.592 318.536 326.888 319.616 326.888 321.764C326.888 323.9 325.568 324.956 323.996 324.956H322.256ZM324.032 326C326.192 326 328.1 324.548 328.1 321.764C328.1 318.968 326.216 317.492 324.056 317.492H321.08V326H324.032ZM333.401 325.304C333.401 325.544 333.425 325.868 333.449 326H334.529C334.505 325.796 334.469 325.388 334.469 324.932V320.228H333.341V323.708C333.341 324.584 332.885 325.184 331.973 325.184C331.025 325.184 330.665 324.488 330.665 323.696V320.228H329.537V323.864C329.537 325.172 330.353 326.18 331.697 326.18C332.369 326.18 333.089 325.904 333.401 325.304ZM337.067 322.52C337.115 321.776 337.691 321.044 338.639 321.044C339.659 321.044 340.199 321.692 340.223 322.52H337.067ZM340.391 324.02C340.175 324.668 339.707 325.184 338.771 325.184C337.799 325.184 337.055 324.464 337.031 323.432H341.375C341.387 323.36 341.399 323.216 341.399 323.072C341.399 321.272 340.403 320.048 338.627 320.048C337.175 320.048 335.867 321.284 335.867 323.096C335.867 325.052 337.223 326.18 338.771 326.18C340.115 326.18 341.039 325.376 341.363 324.356L340.391 324.02ZM347.135 324.956V318.536H348.899C350.471 318.536 351.767 319.616 351.767 321.764C351.767 323.9 350.447 324.956 348.875 324.956H347.135ZM348.911 326C351.071 326 352.979 324.548 352.979 321.764C352.979 318.968 351.095 317.492 348.935 317.492H345.959V326H348.911ZM354.116 324.452C354.116 325.364 354.872 326.18 356.048 326.18C357.08 326.18 357.656 325.628 357.908 325.22C357.908 325.64 357.944 325.856 357.968 326H359.072C359.048 325.856 359 325.556 359 325.052V322.16C359 321.032 358.328 320.048 356.6 320.048C355.352 320.048 354.356 320.816 354.236 321.92L355.316 322.172C355.388 321.5 355.832 321.008 356.624 321.008C357.5 321.008 357.872 321.476 357.872 322.04C357.872 322.244 357.776 322.424 357.428 322.472L355.868 322.7C354.872 322.844 354.116 323.42 354.116 324.452ZM356.204 325.232C355.628 325.232 355.268 324.824 355.268 324.392C355.268 323.876 355.628 323.6 356.108 323.528L357.872 323.264V323.528C357.872 324.788 357.128 325.232 356.204 325.232ZM362.269 318.404H361.237V319.34C361.237 319.844 360.973 320.228 360.349 320.228H360.037V321.248H361.141V324.416C361.141 325.46 361.765 326.06 362.749 326.06C363.133 326.06 363.421 325.988 363.517 325.952V324.992C363.421 325.016 363.217 325.04 363.073 325.04C362.485 325.04 362.269 324.776 362.269 324.248V321.248H363.517V320.228H362.269V318.404ZM365.696 322.52C365.744 321.776 366.32 321.044 367.268 321.044C368.288 321.044 368.828 321.692 368.852 322.52H365.696ZM369.02 324.02C368.804 324.668 368.336 325.184 367.4 325.184C366.428 325.184 365.684 324.464 365.66 323.432H370.004C370.016 323.36 370.028 323.216 370.028 323.072C370.028 321.272 369.032 320.048 367.256 320.048C365.804 320.048 364.496 321.284 364.496 323.096C364.496 325.052 365.852 326.18 367.4 326.18C368.744 326.18 369.668 325.376 369.992 324.356L369.02 324.02Z" fill="#9E9FB2"/>
<path d="M599.736 326V318.212H598.308C598.152 319.028 597.36 319.664 596.22 319.676V320.792H598.092V326H599.736ZM604.493 326V318.212H603.065C602.909 319.028 602.117 319.664 600.977 319.676V320.792H602.849V326H604.493ZM618.792 326V317.492H616.536L614.04 323.636L611.484 317.492H609.3V326H610.884V320.084L613.332 326H614.712L617.16 320.036V326H618.792ZM620.234 324.392C620.234 325.316 621.002 326.168 622.262 326.168C623.138 326.168 623.702 325.76 624.002 325.292C624.002 325.52 624.026 325.844 624.062 326H625.526C625.49 325.796 625.454 325.376 625.454 325.064V322.16C625.454 320.972 624.758 319.916 622.886 319.916C621.302 319.916 620.45 320.936 620.354 321.86L621.77 322.16C621.818 321.644 622.202 321.2 622.898 321.2C623.57 321.2 623.894 321.548 623.894 321.968C623.894 322.172 623.786 322.34 623.45 322.388L621.998 322.604C621.014 322.748 620.234 323.336 620.234 324.392ZM622.598 324.98C622.082 324.98 621.83 324.644 621.83 324.296C621.83 323.84 622.154 323.612 622.562 323.552L623.894 323.348V323.612C623.894 324.656 623.27 324.98 622.598 324.98ZM630.663 320.072C630.543 320.06 630.423 320.048 630.291 320.048C629.787 320.048 628.971 320.192 628.611 320.972V320.096H627.063V326H628.659V323.3C628.659 322.028 629.367 321.632 630.183 321.632C630.327 321.632 630.483 321.644 630.663 321.68V320.072ZM635.939 321.224C635.903 321.092 635.879 320.936 635.879 320.792C635.879 320.06 636.287 319.496 637.115 319.496C637.895 319.496 638.291 320 638.291 320.564C638.291 321.104 638.027 321.512 637.367 321.908L636.083 322.676C634.691 323.516 634.259 324.632 634.247 326H640.007V324.572H636.275C636.395 324.272 636.647 324.056 636.947 323.864L638.447 322.952C639.407 322.364 639.959 321.548 639.959 320.54C639.959 319.184 638.891 318.032 637.151 318.032C635.339 318.032 634.307 319.268 634.307 320.636C634.307 320.828 634.343 321.068 634.367 321.176L635.939 321.224ZM642.982 322.544C643.15 322.484 643.354 322.424 643.69 322.424C644.434 322.424 644.962 322.844 644.962 323.576C644.962 324.224 644.47 324.752 643.642 324.752C642.826 324.752 642.262 324.176 642.226 323.384L640.63 323.696C640.726 325.004 641.83 326.18 643.642 326.18C645.526 326.18 646.63 324.944 646.63 323.6C646.63 322.172 645.55 321.272 644.374 321.224L646.39 319.544V318.212H640.882V319.64H644.29L642.25 321.392L642.982 322.544Z" fill="#3A3A3C"/>
<path d="M647 348H320V350H647V348Z" fill="#F5F5F5" mask="url(#path-11-inside-3_548_4031)"/>
<path d="M429.639 391.36C429.383 390.08 428.327 388.416 425.575 388.416C423.431 388.416 421.623 389.952 421.623 391.968C421.623 393.68 422.791 394.848 424.599 395.216L426.183 395.536C427.063 395.712 427.559 396.224 427.559 396.88C427.559 397.68 426.903 398.272 425.719 398.272C424.119 398.272 423.335 397.264 423.239 396.144L421.191 396.688C421.367 398.304 422.695 400.24 425.703 400.24C428.343 400.24 429.799 398.48 429.799 396.736C429.799 395.136 428.695 393.792 426.631 393.392L425.047 393.088C424.215 392.928 423.815 392.432 423.815 391.808C423.815 391.056 424.519 390.368 425.591 390.368C427.031 390.368 427.543 391.344 427.655 391.968L429.639 391.36ZM432.993 395.168C433.041 394.448 433.649 393.616 434.753 393.616C435.969 393.616 436.481 394.384 436.513 395.168H432.993ZM436.721 397.216C436.465 397.92 435.921 398.416 434.929 398.416C433.873 398.416 432.993 397.664 432.945 396.624H438.577C438.577 396.592 438.609 396.272 438.609 395.968C438.609 393.44 437.153 391.888 434.721 391.888C432.705 391.888 430.849 393.52 430.849 396.032C430.849 398.688 432.753 400.24 434.913 400.24C436.849 400.24 438.097 399.104 438.497 397.744L436.721 397.216ZM442.412 395.472C442.412 394.56 442.956 393.84 443.884 393.84C444.908 393.84 445.34 394.528 445.34 395.408V400H447.468V395.04C447.468 393.312 446.572 391.92 444.62 391.92C443.772 391.92 442.828 392.288 442.348 393.104V392.128H440.284V400H442.412V395.472ZM457.132 388.416H455.036V392.912C454.812 392.496 454.172 391.936 452.812 391.936C450.588 391.936 449.036 393.744 449.036 396.048C449.036 398.432 450.636 400.192 452.876 400.192C453.932 400.192 454.732 399.712 455.084 399.088C455.084 399.456 455.132 399.84 455.164 400H457.196C457.164 399.68 457.132 399.104 457.132 398.576V388.416ZM451.18 396.048C451.18 394.64 452.044 393.84 453.132 393.84C454.22 393.84 455.068 394.624 455.068 396.032C455.068 397.456 454.22 398.288 453.132 398.288C452.012 398.288 451.18 397.456 451.18 396.048ZM462.914 397.856C462.914 399.088 463.938 400.224 465.618 400.224C466.786 400.224 467.538 399.68 467.938 399.056C467.938 399.36 467.97 399.792 468.018 400H469.97C469.922 399.728 469.874 399.168 469.874 398.752V394.88C469.874 393.296 468.946 391.888 466.45 391.888C464.338 391.888 463.202 393.248 463.074 394.48L464.962 394.88C465.026 394.192 465.538 393.6 466.466 393.6C467.362 393.6 467.794 394.064 467.794 394.624C467.794 394.896 467.65 395.12 467.202 395.184L465.266 395.472C463.954 395.664 462.914 396.448 462.914 397.856ZM466.066 398.64C465.378 398.64 465.042 398.192 465.042 397.728C465.042 397.12 465.474 396.816 466.018 396.736L467.794 396.464V396.816C467.794 398.208 466.962 398.64 466.066 398.64ZM481.732 400H484.196L481.764 395.36C483.252 394.928 484.18 393.728 484.18 392.144C484.18 390.176 482.772 388.656 480.564 388.656H476.132V400H478.356V395.632H479.508L481.732 400ZM478.356 393.728V390.576H480.148C481.268 390.576 481.924 391.2 481.924 392.16C481.924 393.088 481.268 393.728 480.148 393.728H478.356ZM487.305 395.168C487.353 394.448 487.961 393.616 489.065 393.616C490.281 393.616 490.793 394.384 490.825 395.168H487.305ZM491.033 397.216C490.777 397.92 490.233 398.416 489.241 398.416C488.185 398.416 487.305 397.664 487.257 396.624H492.889C492.889 396.592 492.921 396.272 492.921 395.968C492.921 393.44 491.465 391.888 489.033 391.888C487.017 391.888 485.161 393.52 485.161 396.032C485.161 398.688 487.065 400.24 489.225 400.24C491.161 400.24 492.409 399.104 492.809 397.744L491.033 397.216ZM496.725 400V395.392C496.725 394.528 497.269 393.84 498.197 393.84C499.157 393.84 499.589 394.48 499.589 395.328V400H501.701V395.392C501.701 394.544 502.245 393.84 503.157 393.84C504.133 393.84 504.549 394.48 504.549 395.328V400H506.613V394.896C506.613 392.784 505.221 391.904 503.765 391.904C502.725 391.904 501.893 392.256 501.269 393.216C500.869 392.368 500.005 391.904 498.933 391.904C498.069 391.904 497.061 392.32 496.629 393.088V392.128H494.597V400H496.725ZM510.897 400V392.128H508.769V400H510.897ZM508.513 389.552C508.513 390.256 509.105 390.848 509.825 390.848C510.561 390.848 511.137 390.256 511.137 389.552C511.137 388.816 510.561 388.224 509.825 388.224C509.105 388.224 508.513 388.816 508.513 389.552ZM515.303 395.472C515.303 394.56 515.847 393.84 516.775 393.84C517.799 393.84 518.231 394.528 518.231 395.408V400H520.359V395.04C520.359 393.312 519.463 391.92 517.511 391.92C516.663 391.92 515.719 392.288 515.239 393.104V392.128H513.175V400H515.303V395.472ZM530.023 388.416H527.927V392.912C527.703 392.496 527.063 391.936 525.703 391.936C523.479 391.936 521.927 393.744 521.927 396.048C521.927 398.432 523.527 400.192 525.767 400.192C526.823 400.192 527.623 399.712 527.975 399.088C527.975 399.456 528.023 399.84 528.055 400H530.087C530.055 399.68 530.023 399.104 530.023 398.576V388.416ZM524.071 396.048C524.071 394.64 524.935 393.84 526.023 393.84C527.111 393.84 527.959 394.624 527.959 396.032C527.959 397.456 527.111 398.288 526.023 398.288C524.903 398.288 524.071 397.456 524.071 396.048ZM533.883 395.168C533.931 394.448 534.539 393.616 535.643 393.616C536.859 393.616 537.371 394.384 537.403 395.168H533.883ZM537.611 397.216C537.355 397.92 536.811 398.416 535.819 398.416C534.763 398.416 533.883 397.664 533.835 396.624H539.467C539.467 396.592 539.499 396.272 539.499 395.968C539.499 393.44 538.043 391.888 535.611 391.888C533.595 391.888 531.739 393.52 531.739 396.032C531.739 398.688 533.643 400.24 535.803 400.24C537.739 400.24 538.987 399.104 539.387 397.744L537.611 397.216ZM545.975 392.096C545.815 392.08 545.655 392.064 545.479 392.064C544.807 392.064 543.719 392.256 543.239 393.296V392.128H541.175V400H543.303V396.4C543.303 394.704 544.247 394.176 545.335 394.176C545.527 394.176 545.735 394.192 545.975 394.24V392.096Z" fill="#1D214C"/>
<rect x="320.5" y="369.5" width="326" height="49" rx="9.5" stroke="#1D214C"/>
<rect x="320" y="429" width="327" height="50" rx="10" fill="#1D214C"/>
<path d="M427.528 460.256C429.96 460.256 431.896 458.768 431.896 455.984V448.656H429.688V455.824C429.688 457.312 428.872 458.096 427.528 458.096C426.216 458.096 425.384 457.312 425.384 455.824V448.656H423.176V455.984C423.176 458.768 425.112 460.256 427.528 460.256ZM436.272 463.04V459.232C436.656 459.76 437.456 460.192 438.544 460.192C440.768 460.192 442.256 458.432 442.256 456.048C442.256 453.712 440.928 451.952 438.624 451.952C437.44 451.952 436.56 452.48 436.208 453.088V452.128H434.144V463.04H436.272ZM440.16 456.064C440.16 457.472 439.296 458.288 438.208 458.288C437.12 458.288 436.24 457.456 436.24 456.064C436.24 454.672 437.12 453.856 438.208 453.856C439.296 453.856 440.16 454.672 440.16 456.064ZM451.445 448.416H449.349V452.912C449.125 452.496 448.485 451.936 447.125 451.936C444.901 451.936 443.349 453.744 443.349 456.048C443.349 458.432 444.949 460.192 447.189 460.192C448.245 460.192 449.045 459.712 449.397 459.088C449.397 459.456 449.445 459.84 449.477 460H451.509C451.477 459.68 451.445 459.104 451.445 458.576V448.416ZM445.493 456.048C445.493 454.64 446.357 453.84 447.445 453.84C448.533 453.84 449.381 454.624 449.381 456.032C449.381 457.456 448.533 458.288 447.445 458.288C446.325 458.288 445.493 457.456 445.493 456.048ZM453.226 457.856C453.226 459.088 454.25 460.224 455.93 460.224C457.098 460.224 457.85 459.68 458.25 459.056C458.25 459.36 458.282 459.792 458.33 460H460.282C460.234 459.728 460.186 459.168 460.186 458.752V454.88C460.186 453.296 459.258 451.888 456.762 451.888C454.65 451.888 453.514 453.248 453.386 454.48L455.274 454.88C455.338 454.192 455.85 453.6 456.778 453.6C457.674 453.6 458.106 454.064 458.106 454.624C458.106 454.896 457.962 455.12 457.514 455.184L455.578 455.472C454.266 455.664 453.226 456.448 453.226 457.856ZM456.378 458.64C455.69 458.64 455.354 458.192 455.354 457.728C455.354 457.12 455.786 456.816 456.33 456.736L458.106 456.464V456.816C458.106 458.208 457.274 458.64 456.378 458.64ZM464.908 449.776H462.988V450.88C462.988 451.584 462.604 452.128 461.772 452.128H461.372V454.016H462.796V457.68C462.796 459.2 463.756 460.112 465.292 460.112C465.916 460.112 466.3 460 466.492 459.92V458.16C466.38 458.192 466.092 458.224 465.836 458.224C465.228 458.224 464.908 458 464.908 457.312V454.016H466.492V452.128H464.908V449.776ZM469.774 455.168C469.822 454.448 470.43 453.616 471.534 453.616C472.75 453.616 473.262 454.384 473.294 455.168H469.774ZM473.502 457.216C473.246 457.92 472.702 458.416 471.71 458.416C470.654 458.416 469.774 457.664 469.726 456.624H475.358C475.358 456.592 475.39 456.272 475.39 455.968C475.39 453.44 473.934 451.888 471.502 451.888C469.486 451.888 467.63 453.52 467.63 456.032C467.63 458.688 469.534 460.24 471.694 460.24C473.63 460.24 474.878 459.104 475.278 457.744L473.502 457.216ZM483.403 453.824V450.576H485.147C486.251 450.576 486.923 451.2 486.923 452.208C486.923 453.184 486.251 453.824 485.147 453.824H483.403ZM485.419 455.728C487.659 455.728 489.147 454.256 489.147 452.192C489.147 450.144 487.659 448.656 485.419 448.656H481.179V460H483.387V455.728H485.419ZM489.961 457.856C489.961 459.088 490.985 460.224 492.665 460.224C493.833 460.224 494.585 459.68 494.985 459.056C494.985 459.36 495.017 459.792 495.065 460H497.017C496.969 459.728 496.921 459.168 496.921 458.752V454.88C496.921 453.296 495.993 451.888 493.497 451.888C491.385 451.888 490.249 453.248 490.121 454.48L492.009 454.88C492.073 454.192 492.585 453.6 493.513 453.6C494.409 453.6 494.841 454.064 494.841 454.624C494.841 454.896 494.697 455.12 494.249 455.184L492.313 455.472C491.001 455.664 489.961 456.448 489.961 457.856ZM493.113 458.64C492.425 458.64 492.089 458.192 492.089 457.728C492.089 457.12 492.521 456.816 493.065 456.736L494.841 456.464V456.816C494.841 458.208 494.009 458.64 493.113 458.64ZM501.583 463.104L506.527 452.128H504.255L502.319 456.736L500.223 452.128H497.839L501.183 459.008L499.327 463.104H501.583ZM509.944 460V455.392C509.944 454.528 510.488 453.84 511.416 453.84C512.376 453.84 512.808 454.48 512.808 455.328V460H514.92V455.392C514.92 454.544 515.464 453.84 516.376 453.84C517.352 453.84 517.768 454.48 517.768 455.328V460H519.832V454.896C519.832 452.784 518.44 451.904 516.984 451.904C515.944 451.904 515.112 452.256 514.488 453.216C514.088 452.368 513.224 451.904 512.152 451.904C511.288 451.904 510.28 452.32 509.848 453.088V452.128H507.816V460H509.944ZM523.54 455.168C523.588 454.448 524.196 453.616 525.3 453.616C526.516 453.616 527.028 454.384 527.06 455.168H523.54ZM527.268 457.216C527.012 457.92 526.468 458.416 525.476 458.416C524.42 458.416 523.54 457.664 523.492 456.624H529.124C529.124 456.592 529.156 456.272 529.156 455.968C529.156 453.44 527.7 451.888 525.268 451.888C523.252 451.888 521.396 453.52 521.396 456.032C521.396 458.688 523.3 460.24 525.46 460.24C527.396 460.24 528.644 459.104 529.044 457.744L527.268 457.216ZM532.959 455.472C532.959 454.56 533.503 453.84 534.431 453.84C535.455 453.84 535.887 454.528 535.887 455.408V460H538.015V455.04C538.015 453.312 537.119 451.92 535.167 451.92C534.319 451.92 533.375 452.288 532.895 453.104V452.128H530.831V460H532.959V455.472ZM542.799 449.776H540.879V450.88C540.879 451.584 540.495 452.128 539.663 452.128H539.263V454.016H540.687V457.68C540.687 459.2 541.647 460.112 543.183 460.112C543.807 460.112 544.191 460 544.383 459.92V458.16C544.271 458.192 543.983 458.224 543.727 458.224C543.119 458.224 542.799 458 542.799 457.312V454.016H544.383V452.128H542.799V449.776Z" fill="white"/>
<g filter="url(#filter1_d_548_4031)">
<rect x="19" y="17" width="367" height="346" rx="10" fill="white"/>
</g>
<g clip-path="url(#clip0_548_4031)">
<rect x="39" y="175" width="33" height="33" rx="16.5" fill="#01C4FD" fill-opacity="0.4"/>
<path d="M55.4997 191.5C54.4455 191.5 53.5431 191.125 52.7924 190.374C52.0417 189.623 51.6663 188.721 51.6663 187.667C51.6663 186.612 52.0417 185.71 52.7924 184.959C53.5431 184.209 54.4455 183.833 55.4997 183.833C56.5538 183.833 57.4563 184.209 58.207 184.959C58.9577 185.71 59.333 186.612 59.333 187.667C59.333 188.721 58.9577 189.623 58.207 190.374C57.4563 191.125 56.5538 191.5 55.4997 191.5ZM47.833 199.167V196.483C47.833 195.94 47.9729 195.441 48.2528 194.985C48.532 194.53 48.9031 194.183 49.3663 193.944C50.3566 193.449 51.3629 193.077 52.3851 192.829C53.4073 192.582 54.4455 192.458 55.4997 192.458C56.5538 192.458 57.592 192.582 58.6143 192.829C59.6365 193.077 60.6427 193.449 61.633 193.944C62.0962 194.183 62.4674 194.53 62.7466 194.985C63.0264 195.441 63.1663 195.94 63.1663 196.483V199.167H47.833Z" fill="#1D214C"/>
<path d="M87.628 175.21C90.414 175.21 91.842 173.362 92.22 171.836L90.414 171.29C90.148 172.214 89.322 173.32 87.628 173.32C86.032 173.32 84.548 172.158 84.548 170.044C84.548 167.79 86.116 166.726 87.6 166.726C89.322 166.726 90.092 167.776 90.33 168.728L92.15 168.154C91.758 166.544 90.344 164.864 87.6 164.864C84.94 164.864 82.546 166.88 82.546 170.044C82.546 173.208 84.856 175.21 87.628 175.21ZM95.4107 170.954C95.4527 170.198 95.9147 169.61 96.6987 169.61C97.5947 169.61 97.9727 170.212 97.9727 170.982V175H99.8347V170.66C99.8347 169.148 99.0227 167.93 97.2727 167.93C96.6147 167.93 95.8587 168.154 95.4107 168.686V164.864H93.5487V175H95.4107V170.954ZM103.586 175V168.112H101.724V175H103.586ZM101.5 165.858C101.5 166.474 102.018 166.992 102.648 166.992C103.292 166.992 103.796 166.474 103.796 165.858C103.796 165.214 103.292 164.696 102.648 164.696C102.018 164.696 101.5 165.214 101.5 165.858ZM107.442 171.038C107.442 170.24 107.918 169.61 108.73 169.61C109.626 169.61 110.004 170.212 110.004 170.982V175H111.866V170.66C111.866 169.148 111.082 167.93 109.374 167.93C108.632 167.93 107.806 168.252 107.386 168.966V168.112H105.58V175H107.442V171.038ZM113.336 173.124C113.336 174.202 114.232 175.196 115.702 175.196C116.724 175.196 117.382 174.72 117.732 174.174C117.732 174.44 117.76 174.818 117.802 175H119.51C119.468 174.762 119.426 174.272 119.426 173.908V170.52C119.426 169.134 118.614 167.902 116.43 167.902C114.582 167.902 113.588 169.092 113.476 170.17L115.128 170.52C115.184 169.918 115.632 169.4 116.444 169.4C117.228 169.4 117.606 169.806 117.606 170.296C117.606 170.534 117.48 170.73 117.088 170.786L115.394 171.038C114.246 171.206 113.336 171.892 113.336 173.124ZM116.094 173.81C115.492 173.81 115.198 173.418 115.198 173.012C115.198 172.48 115.576 172.214 116.052 172.144L117.606 171.906V172.214C117.606 173.432 116.878 173.81 116.094 173.81ZM120.715 173.082C120.799 173.866 121.513 175.21 123.585 175.21C125.391 175.21 126.259 174.062 126.259 172.942C126.259 171.934 125.573 171.108 124.215 170.828L123.235 170.618C122.857 170.548 122.605 170.338 122.605 170.002C122.605 169.61 122.997 169.316 123.487 169.316C124.271 169.316 124.565 169.834 124.621 170.24L126.175 169.89C126.091 169.148 125.433 167.902 123.473 167.902C121.989 167.902 120.897 168.924 120.897 170.156C120.897 171.122 121.499 171.92 122.829 172.214L123.739 172.424C124.271 172.536 124.481 172.788 124.481 173.096C124.481 173.46 124.187 173.782 123.571 173.782C122.759 173.782 122.353 173.278 122.311 172.732L120.715 173.082ZM127.281 173.124C127.281 174.202 128.177 175.196 129.647 175.196C130.669 175.196 131.327 174.72 131.677 174.174C131.677 174.44 131.705 174.818 131.747 175H133.455C133.413 174.762 133.371 174.272 133.371 173.908V170.52C133.371 169.134 132.559 167.902 130.375 167.902C128.527 167.902 127.533 169.092 127.421 170.17L129.073 170.52C129.129 169.918 129.577 169.4 130.389 169.4C131.173 169.4 131.551 169.806 131.551 170.296C131.551 170.534 131.425 170.73 131.033 170.786L129.339 171.038C128.191 171.206 127.281 171.892 127.281 173.124ZM130.039 173.81C129.437 173.81 129.143 173.418 129.143 173.012C129.143 172.48 129.521 172.214 129.997 172.144L131.551 171.906V172.214C131.551 173.432 130.823 173.81 130.039 173.81ZM140.261 170.03C140.261 167.79 141.829 166.726 143.355 166.726C144.895 166.726 146.463 167.79 146.463 170.03C146.463 172.27 144.895 173.334 143.355 173.334C141.829 173.334 140.261 172.27 140.261 170.03ZM138.259 170.044C138.259 173.236 140.667 175.21 143.355 175.21C146.057 175.21 148.465 173.236 148.465 170.044C148.465 166.838 146.057 164.864 143.355 164.864C140.667 164.864 138.259 166.838 138.259 170.044ZM149.551 175.378C149.747 176.694 151.007 177.87 152.897 177.87C155.487 177.87 156.509 176.148 156.509 174.258V168.112H154.717V168.924C154.479 168.462 153.849 167.986 152.757 167.986C150.867 167.986 149.551 169.526 149.551 171.346C149.551 173.278 150.923 174.692 152.757 174.692C153.751 174.692 154.395 174.258 154.675 173.81V174.314C154.675 175.644 154.017 176.232 152.841 176.232C151.959 176.232 151.357 175.686 151.231 174.93L149.551 175.378ZM153.079 173.096C152.113 173.096 151.427 172.424 151.427 171.346C151.427 170.282 152.155 169.61 153.079 169.61C153.975 169.61 154.703 170.282 154.703 171.346C154.703 172.41 154.031 173.096 153.079 173.096ZM162.834 175H164.612C164.584 174.762 164.542 174.286 164.542 173.754V168.112H162.68V172.116C162.68 172.914 162.204 173.474 161.378 173.474C160.51 173.474 160.118 172.858 160.118 172.088V168.112H158.256V172.466C158.256 173.964 159.208 175.182 160.874 175.182C161.602 175.182 162.4 174.902 162.778 174.258C162.778 174.538 162.806 174.86 162.834 175Z" fill="#3A3A3C"/>
<path d="M87.2818 194.668V193.016H83.2218V194.668H87.2818ZM91.6239 198V194.542H90.8119V193.506H91.6239V192.498H90.8119V191.462H91.6239V188.004H93.8219L94.9139 191.462H96.1879V188.004H97.7419V191.462H98.5399V192.498H97.7419V193.506H98.5399V194.542H97.7419V198H95.5299L94.4099 194.542H93.1779V198H91.6239ZM93.1779 193.506H94.1019L93.7939 192.498H93.1499L93.1779 193.506ZM96.2299 195.816H96.2999L96.2439 194.542H95.8659L96.2299 195.816ZM93.1219 191.462H93.5139L93.1079 190.118H93.0519L93.1219 191.462ZM95.5719 193.506H96.2159L96.1879 192.498H95.2499L95.5719 193.506ZM102.549 195.452C102.661 196.88 104.033 198.224 106.007 198.224C108.191 198.224 109.493 196.754 109.493 195.06C109.493 193.114 108.205 192.022 106.385 192.022C105.783 192.022 105.139 192.218 104.747 192.582L105.195 190.58H109.003V188.914H103.879L102.801 193.576C102.997 193.632 104.383 194.108 104.565 194.178C104.859 193.842 105.349 193.562 105.965 193.562C106.805 193.562 107.575 194.052 107.575 195.088C107.575 195.998 106.875 196.572 106.007 196.572C105.041 196.572 104.397 195.886 104.355 195.046L102.549 195.452ZM110.612 196.88C110.612 197.552 111.088 198.042 111.774 198.042C111.928 198.042 112.082 198 112.138 197.958C112.11 198.728 111.438 199.33 110.808 199.47V200.366C111.844 200.24 113.272 199.372 113.272 197.314C113.272 196.404 112.754 195.704 111.886 195.704C111.158 195.704 110.612 196.208 110.612 196.88ZM116.352 193.464C116.352 192.512 116.492 191.7 116.842 191.154C117.122 190.706 117.556 190.412 118.214 190.412C118.886 190.412 119.292 190.706 119.572 191.154C119.936 191.7 120.076 192.512 120.076 193.464C120.076 194.416 119.936 195.228 119.572 195.774C119.292 196.222 118.886 196.516 118.214 196.516C117.556 196.516 117.122 196.222 116.842 195.774C116.492 195.228 116.352 194.416 116.352 193.464ZM114.42 193.464C114.42 194.626 114.602 195.76 115.218 196.698C115.82 197.594 116.8 198.224 118.214 198.224C119.628 198.224 120.608 197.594 121.196 196.698C121.812 195.76 122.008 194.626 122.008 193.464C122.008 192.302 121.812 191.168 121.196 190.23C120.608 189.334 119.628 188.704 118.214 188.704C116.8 188.704 115.82 189.334 115.218 190.23C114.602 191.168 114.42 192.302 114.42 193.464ZM125.061 193.464C125.061 192.512 125.201 191.7 125.551 191.154C125.831 190.706 126.265 190.412 126.923 190.412C127.595 190.412 128.001 190.706 128.281 191.154C128.645 191.7 128.785 192.512 128.785 193.464C128.785 194.416 128.645 195.228 128.281 195.774C128.001 196.222 127.595 196.516 126.923 196.516C126.265 196.516 125.831 196.222 125.551 195.774C125.201 195.228 125.061 194.416 125.061 193.464ZM123.129 193.464C123.129 194.626 123.311 195.76 123.927 196.698C124.529 197.594 125.509 198.224 126.923 198.224C128.337 198.224 129.317 197.594 129.905 196.698C130.521 195.76 130.717 194.626 130.717 193.464C130.717 192.302 130.521 191.168 129.905 190.23C129.317 189.334 128.337 188.704 126.923 188.704C125.509 188.704 124.529 189.334 123.927 190.23C123.311 191.168 123.129 192.302 123.129 193.464ZM133.77 193.464C133.77 192.512 133.91 191.7 134.26 191.154C134.54 190.706 134.974 190.412 135.632 190.412C136.304 190.412 136.71 190.706 136.99 191.154C137.354 191.7 137.494 192.512 137.494 193.464C137.494 194.416 137.354 195.228 136.99 195.774C136.71 196.222 136.304 196.516 135.632 196.516C134.974 196.516 134.54 196.222 134.26 195.774C133.91 195.228 133.77 194.416 133.77 193.464ZM131.838 193.464C131.838 194.626 132.02 195.76 132.636 196.698C133.238 197.594 134.218 198.224 135.632 198.224C137.046 198.224 138.026 197.594 138.614 196.698C139.23 195.76 139.426 194.626 139.426 193.464C139.426 192.302 139.23 191.168 138.614 190.23C138.026 189.334 137.046 188.704 135.632 188.704C134.218 188.704 133.238 189.334 132.636 190.23C132.02 191.168 131.838 192.302 131.838 193.464Z" fill="#13C4A3"/>
<path d="M84.864 217.956V211.536H86.628C88.2 211.536 89.496 212.616 89.496 214.764C89.496 216.9 88.176 217.956 86.604 217.956H84.864ZM86.64 219C88.8 219 90.708 217.548 90.708 214.764C90.708 211.968 88.824 210.492 86.664 210.492H83.688V219H86.64ZM95.8887 218.304C95.8887 218.544 95.9127 218.868 95.9367 219H97.0167C96.9927 218.796 96.9567 218.388 96.9567 217.932V213.228H95.8287V216.708C95.8287 217.584 95.3727 218.184 94.4607 218.184C93.5127 218.184 93.1527 217.488 93.1527 216.696V213.228H92.0247V216.864C92.0247 218.172 92.8407 219.18 94.1847 219.18C94.8567 219.18 95.5767 218.904 95.8887 218.304ZM99.435 215.52C99.483 214.776 100.059 214.044 101.007 214.044C102.027 214.044 102.567 214.692 102.591 215.52H99.435ZM102.759 217.02C102.543 217.668 102.075 218.184 101.139 218.184C100.167 218.184 99.423 217.464 99.399 216.432H103.743C103.755 216.36 103.767 216.216 103.767 216.072C103.767 214.272 102.771 213.048 100.995 213.048C99.543 213.048 98.235 214.284 98.235 216.096C98.235 218.052 99.591 219.18 101.139 219.18C102.483 219.18 103.407 218.376 103.731 217.356L102.759 217.02ZM110.439 218.172C109.479 218.172 108.639 217.452 108.639 216.108C108.639 214.776 109.479 214.056 110.439 214.056C111.399 214.056 112.239 214.776 112.239 216.108C112.239 217.452 111.399 218.172 110.439 218.172ZM110.439 213.048C108.711 213.048 107.487 214.356 107.487 216.108C107.487 217.872 108.711 219.18 110.439 219.18C112.167 219.18 113.391 217.872 113.391 216.108C113.391 214.356 112.167 213.048 110.439 213.048ZM115.842 215.664C115.842 214.788 116.298 214.08 117.186 214.08C118.194 214.08 118.53 214.728 118.53 215.532V219H119.658V215.34C119.658 214.056 118.974 213.06 117.594 213.06C116.922 213.06 116.238 213.336 115.818 214.056V213.228H114.714V219H115.842V215.664ZM125.508 219V215.424H129.132V214.32H125.508V211.584H129.504V210.492H124.332V219H125.508ZM131.012 215.52C131.06 214.776 131.636 214.044 132.584 214.044C133.604 214.044 134.144 214.692 134.168 215.52H131.012ZM134.336 217.02C134.12 217.668 133.652 218.184 132.716 218.184C131.744 218.184 131 217.464 130.976 216.432H135.32C135.332 216.36 135.344 216.216 135.344 216.072C135.344 214.272 134.348 213.048 132.572 213.048C131.12 213.048 129.812 214.284 129.812 216.096C129.812 218.052 131.168 219.18 132.716 219.18C134.06 219.18 134.984 218.376 135.308 217.356L134.336 217.02ZM137.78 219V218.16C138.14 218.784 138.8 219.156 139.652 219.156C141.368 219.156 142.34 217.8 142.34 216.084C142.34 214.404 141.44 213.06 139.688 213.06C138.728 213.06 138.056 213.528 137.78 214.044V210.312H136.664V219H137.78ZM141.188 216.084C141.188 217.332 140.516 218.148 139.484 218.148C138.488 218.148 137.768 217.332 137.768 216.084C137.768 214.836 138.488 214.056 139.484 214.056C140.528 214.056 141.188 214.836 141.188 216.084ZM147.341 215.112C147.341 213.924 147.557 213.084 148.025 212.592C148.325 212.28 148.709 212.088 149.261 212.088C149.813 212.088 150.197 212.28 150.497 212.592C150.965 213.084 151.181 213.924 151.181 215.112C151.181 216.3 150.965 217.14 150.497 217.632C150.197 217.944 149.813 218.136 149.261 218.136C148.709 218.136 148.325 217.944 148.025 217.632C147.557 217.14 147.341 216.3 147.341 215.112ZM146.177 215.112C146.177 216.18 146.357 217.164 146.873 217.932C147.377 218.688 148.157 219.18 149.261 219.18C150.365 219.18 151.145 218.688 151.649 217.932C152.165 217.164 152.345 216.18 152.345 215.112C152.345 214.044 152.165 213.06 151.649 212.292C151.145 211.536 150.365 211.044 149.261 211.044C148.157 211.044 147.377 211.536 146.873 212.292C146.357 213.06 146.177 214.044 146.177 215.112ZM156.106 219V211.224H155.074C154.894 212.064 154.15 212.664 153.07 212.688V213.516H154.954V219H156.106Z" fill="#1D214C"/>
<path d="M283.945 193.816L281.725 187.492H279.913L283.057 196H284.761L287.917 187.492H286.165L283.945 193.816ZM290.359 196V190.096H288.763V196H290.359ZM288.571 188.164C288.571 188.692 289.015 189.136 289.555 189.136C290.107 189.136 290.539 188.692 290.539 188.164C290.539 187.612 290.107 187.168 289.555 187.168C289.015 187.168 288.571 187.612 288.571 188.164ZM293.112 192.376C293.148 191.836 293.604 191.212 294.432 191.212C295.344 191.212 295.728 191.788 295.752 192.376H293.112ZM295.908 193.912C295.716 194.44 295.308 194.812 294.564 194.812C293.772 194.812 293.112 194.248 293.076 193.468H297.3C297.3 193.444 297.324 193.204 297.324 192.976C297.324 191.08 296.232 189.916 294.408 189.916C292.896 189.916 291.504 191.14 291.504 193.024C291.504 195.016 292.932 196.18 294.552 196.18C296.004 196.18 296.94 195.328 297.24 194.308L295.908 193.912ZM301.715 190.096L300.431 193.888L299.339 190.096H297.659L299.543 196H301.163L302.519 191.968L303.899 196H305.495L307.343 190.096H305.759L304.667 193.9L303.395 190.096H301.715ZM312.84 194.464V189.028H314.172C315.564 189.028 316.716 189.904 316.716 191.752C316.716 193.6 315.552 194.464 314.16 194.464H312.84ZM314.22 196C316.644 196 318.432 194.44 318.432 191.752C318.432 189.064 316.656 187.492 314.232 187.492H311.184V196H314.22ZM320.827 192.376C320.863 191.836 321.319 191.212 322.147 191.212C323.059 191.212 323.443 191.788 323.467 192.376H320.827ZM323.623 193.912C323.431 194.44 323.023 194.812 322.279 194.812C321.487 194.812 320.827 194.248 320.791 193.468H325.015C325.015 193.444 325.039 193.204 325.039 192.976C325.039 191.08 323.947 189.916 322.123 189.916C320.611 189.916 319.219 191.14 319.219 193.024C319.219 195.016 320.647 196.18 322.267 196.18C323.719 196.18 324.655 195.328 324.955 194.308L323.623 193.912ZM328.144 188.332H326.704V189.16C326.704 189.688 326.416 190.096 325.792 190.096H325.492V191.512H326.56V194.26C326.56 195.4 327.28 196.084 328.432 196.084C328.9 196.084 329.188 196 329.332 195.94V194.62C329.248 194.644 329.032 194.668 328.84 194.668C328.384 194.668 328.144 194.5 328.144 193.984V191.512H329.332V190.096H328.144V188.332ZM330.243 194.392C330.243 195.316 331.011 196.168 332.271 196.168C333.147 196.168 333.711 195.76 334.011 195.292C334.011 195.52 334.035 195.844 334.071 196H335.535C335.499 195.796 335.463 195.376 335.463 195.064V192.16C335.463 190.972 334.767 189.916 332.895 189.916C331.311 189.916 330.459 190.936 330.363 191.86L331.779 192.16C331.827 191.644 332.211 191.2 332.907 191.2C333.579 191.2 333.903 191.548 333.903 191.968C333.903 192.172 333.795 192.34 333.459 192.388L332.007 192.604C331.023 192.748 330.243 193.336 330.243 194.392ZM332.607 194.98C332.091 194.98 331.839 194.644 331.839 194.296C331.839 193.84 332.163 193.612 332.571 193.552L333.903 193.348V193.612C333.903 194.656 333.279 194.98 332.607 194.98ZM338.547 196V190.096H336.951V196H338.547ZM336.759 188.164C336.759 188.692 337.203 189.136 337.743 189.136C338.295 189.136 338.727 188.692 338.727 188.164C338.727 187.612 338.295 187.168 337.743 187.168C337.203 187.168 336.759 187.612 336.759 188.164ZM341.732 196V187.312H340.136V196H341.732ZM342.817 194.356C342.889 195.028 343.501 196.18 345.277 196.18C346.825 196.18 347.569 195.196 347.569 194.236C347.569 193.372 346.981 192.664 345.817 192.424L344.977 192.244C344.653 192.184 344.437 192.004 344.437 191.716C344.437 191.38 344.773 191.128 345.193 191.128C345.865 191.128 346.117 191.572 346.165 191.92L347.497 191.62C347.425 190.984 346.861 189.916 345.181 189.916C343.909 189.916 342.973 190.792 342.973 191.848C342.973 192.676 343.489 193.36 344.629 193.612L345.409 193.792C345.865 193.888 346.045 194.104 346.045 194.368C346.045 194.68 345.793 194.956 345.265 194.956C344.569 194.956 344.221 194.524 344.185 194.056L342.817 194.356Z" fill="#1D214C"/>
<path d="M356.873 196.429C356.738 196.294 356.67 196.133 356.67 195.948C356.67 195.763 356.738 195.603 356.873 195.468L360.841 191.5L356.859 187.519C356.733 187.392 356.67 187.234 356.67 187.045C356.67 186.855 356.738 186.693 356.873 186.557C357.008 186.422 357.169 186.354 357.354 186.354C357.539 186.354 357.699 186.422 357.834 186.557L362.384 191.121C362.439 191.175 362.477 191.234 362.5 191.297C362.522 191.36 362.533 191.428 362.533 191.5C362.533 191.572 362.522 191.64 362.5 191.703C362.477 191.766 362.439 191.825 362.384 191.879L357.821 196.443C357.694 196.569 357.539 196.632 357.354 196.632C357.169 196.632 357.008 196.565 356.873 196.429Z" fill="#1D214C"/>
<path d="M366 241H39V243H366V241Z" fill="#F5F5F5" mask="url(#path-21-inside-4_548_4031)"/>
<rect x="39" y="276" width="33" height="33" rx="16.5" fill="#01C4FD" fill-opacity="0.4"/>
<path d="M55.4997 292.5C54.4455 292.5 53.5431 292.125 52.7924 291.374C52.0417 290.623 51.6663 289.721 51.6663 288.667C51.6663 287.612 52.0417 286.71 52.7924 285.959C53.5431 285.209 54.4455 284.833 55.4997 284.833C56.5538 284.833 57.4563 285.209 58.207 285.959C58.9577 286.71 59.333 287.612 59.333 288.667C59.333 289.721 58.9577 290.623 58.207 291.374C57.4563 292.125 56.5538 292.5 55.4997 292.5ZM47.833 300.167V297.483C47.833 296.94 47.9729 296.441 48.2528 295.985C48.532 295.53 48.9031 295.183 49.3663 294.944C50.3566 294.449 51.3629 294.077 52.3851 293.829C53.4073 293.582 54.4455 293.458 55.4997 293.458C56.5538 293.458 57.592 293.582 58.6143 293.829C59.6365 294.077 60.6427 294.449 61.633 294.944C62.0962 295.183 62.4674 295.53 62.7466 295.985C63.0264 296.441 63.1663 296.94 63.1663 297.483V300.167H47.833Z" fill="#1D214C"/>
<path d="M85.066 274.208V267.866H86.62C88.244 267.866 89.588 268.888 89.588 271.044C89.588 273.2 88.23 274.208 86.606 274.208H85.066ZM86.676 276C89.504 276 91.59 274.18 91.59 271.044C91.59 267.908 89.518 266.074 86.69 266.074H83.134V276H86.676ZM92.5649 274.124C92.5649 275.202 93.4609 276.196 94.9309 276.196C95.9529 276.196 96.6109 275.72 96.9609 275.174C96.9609 275.44 96.9889 275.818 97.0309 276H98.7389C98.6969 275.762 98.6549 275.272 98.6549 274.908V271.52C98.6549 270.134 97.8429 268.902 95.6589 268.902C93.8109 268.902 92.8169 270.092 92.7049 271.17L94.3569 271.52C94.4129 270.918 94.8609 270.4 95.6729 270.4C96.4569 270.4 96.8349 270.806 96.8349 271.296C96.8349 271.534 96.7089 271.73 96.3169 271.786L94.6229 272.038C93.4749 272.206 92.5649 272.892 92.5649 274.124ZM95.3229 274.81C94.7209 274.81 94.4269 274.418 94.4269 274.012C94.4269 273.48 94.8049 273.214 95.2809 273.144L96.8349 272.906V273.214C96.8349 274.432 96.1069 274.81 95.3229 274.81ZM104.592 269.084C104.452 269.07 104.312 269.056 104.158 269.056C103.57 269.056 102.618 269.224 102.198 270.134V269.112H100.392V276H102.254V272.85C102.254 271.366 103.08 270.904 104.032 270.904C104.2 270.904 104.382 270.918 104.592 270.96V269.084ZM107.051 271.772C107.093 271.142 107.625 270.414 108.591 270.414C109.655 270.414 110.103 271.086 110.131 271.772H107.051ZM110.313 273.564C110.089 274.18 109.613 274.614 108.745 274.614C107.821 274.614 107.051 273.956 107.009 273.046H111.937C111.937 273.018 111.965 272.738 111.965 272.472C111.965 270.26 110.691 268.902 108.563 268.902C106.799 268.902 105.175 270.33 105.175 272.528C105.175 274.852 106.841 276.21 108.731 276.21C110.425 276.21 111.517 275.216 111.867 274.026L110.313 273.564ZM126.06 272.934L123.848 266.074H121.846L119.648 272.906L117.828 266.074H115.784L118.542 276H120.558L122.826 268.93L125.094 276H127.082L129.826 266.074H127.852L126.06 272.934ZM130.009 274.124C130.009 275.202 130.905 276.196 132.375 276.196C133.397 276.196 134.055 275.72 134.405 275.174C134.405 275.44 134.433 275.818 134.475 276H136.183C136.141 275.762 136.099 275.272 136.099 274.908V271.52C136.099 270.134 135.287 268.902 133.103 268.902C131.255 268.902 130.261 270.092 130.149 271.17L131.801 271.52C131.857 270.918 132.305 270.4 133.117 270.4C133.901 270.4 134.279 270.806 134.279 271.296C134.279 271.534 134.153 271.73 133.761 271.786L132.067 272.038C130.919 272.206 130.009 272.892 130.009 274.124ZM132.767 274.81C132.165 274.81 131.871 274.418 131.871 274.012C131.871 273.48 132.249 273.214 132.725 273.144L134.279 272.906V273.214C134.279 274.432 133.551 274.81 132.767 274.81ZM137.248 274.082C137.332 274.866 138.046 276.21 140.118 276.21C141.924 276.21 142.792 275.062 142.792 273.942C142.792 272.934 142.106 272.108 140.748 271.828L139.768 271.618C139.39 271.548 139.138 271.338 139.138 271.002C139.138 270.61 139.53 270.316 140.02 270.316C140.804 270.316 141.098 270.834 141.154 271.24L142.708 270.89C142.624 270.148 141.966 268.902 140.006 268.902C138.522 268.902 137.43 269.924 137.43 271.156C137.43 272.122 138.032 272.92 139.362 273.214L140.272 273.424C140.804 273.536 141.014 273.788 141.014 274.096C141.014 274.46 140.72 274.782 140.104 274.782C139.292 274.782 138.886 274.278 138.844 273.732L137.248 274.082ZM146.011 276V269.112H144.149V276H146.011ZM143.925 266.858C143.925 267.474 144.443 267.992 145.073 267.992C145.717 267.992 146.221 267.474 146.221 266.858C146.221 266.214 145.717 265.696 145.073 265.696C144.443 265.696 143.925 266.214 143.925 266.858ZM152.373 276H154.151C154.123 275.762 154.081 275.286 154.081 274.754V269.112H152.219V273.116C152.219 273.914 151.743 274.474 150.917 274.474C150.049 274.474 149.657 273.858 149.657 273.088V269.112H147.795V273.466C147.795 274.964 148.747 276.182 150.413 276.182C151.141 276.182 151.939 275.902 152.317 275.258C152.317 275.538 152.345 275.86 152.373 276Z" fill="#3A3A3C"/>
<path d="M87.4018 295.668V294.016H83.3418V295.668H87.4018ZM91.4639 299V295.542H90.6519V294.506H91.4639V293.498H90.6519V292.462H91.4639V289.004H93.6619L94.7539 292.462H96.0279V289.004H97.5819V292.462H98.3799V293.498H97.5819V294.506H98.3799V295.542H97.5819V299H95.3699L94.2499 295.542H93.0179V299H91.4639ZM93.0179 294.506H93.9419L93.6339 293.498H92.9899L93.0179 294.506ZM96.0699 296.816H96.1399L96.0839 295.542H95.7059L96.0699 296.816ZM92.9619 292.462H93.3539L92.9479 291.118H92.8919L92.9619 292.462ZM95.4119 294.506H96.0559L96.0279 293.498H95.0899L95.4119 294.506ZM102.109 296.452C102.221 297.88 103.593 299.224 105.567 299.224C107.751 299.224 109.053 297.754 109.053 296.06C109.053 294.114 107.765 293.022 105.945 293.022C105.343 293.022 104.699 293.218 104.307 293.582L104.755 291.58H108.563V289.914H103.439L102.361 294.576C102.557 294.632 103.943 295.108 104.125 295.178C104.419 294.842 104.909 294.562 105.525 294.562C106.365 294.562 107.135 295.052 107.135 296.088C107.135 296.998 106.435 297.572 105.567 297.572C104.601 297.572 103.957 296.886 103.915 296.046L102.109 296.452ZM110.032 297.88C110.032 298.552 110.508 299.042 111.194 299.042C111.348 299.042 111.502 299 111.558 298.958C111.53 299.728 110.858 300.33 110.228 300.47V301.366C111.264 301.24 112.692 300.372 112.692 298.314C112.692 297.404 112.174 296.704 111.306 296.704C110.578 296.704 110.032 297.208 110.032 297.88ZM115.632 294.464C115.632 293.512 115.772 292.7 116.122 292.154C116.402 291.706 116.836 291.412 117.494 291.412C118.166 291.412 118.572 291.706 118.852 292.154C119.216 292.7 119.356 293.512 119.356 294.464C119.356 295.416 119.216 296.228 118.852 296.774C118.572 297.222 118.166 297.516 117.494 297.516C116.836 297.516 116.402 297.222 116.122 296.774C115.772 296.228 115.632 295.416 115.632 294.464ZM113.7 294.464C113.7 295.626 113.882 296.76 114.498 297.698C115.1 298.594 116.08 299.224 117.494 299.224C118.908 299.224 119.888 298.594 120.476 297.698C121.092 296.76 121.288 295.626 121.288 294.464C121.288 293.302 121.092 292.168 120.476 291.23C119.888 290.334 118.908 289.704 117.494 289.704C116.08 289.704 115.1 290.334 114.498 291.23C113.882 292.168 113.7 293.302 113.7 294.464ZM124.201 294.464C124.201 293.512 124.341 292.7 124.691 292.154C124.971 291.706 125.405 291.412 126.063 291.412C126.735 291.412 127.141 291.706 127.421 292.154C127.785 292.7 127.925 293.512 127.925 294.464C127.925 295.416 127.785 296.228 127.421 296.774C127.141 297.222 126.735 297.516 126.063 297.516C125.405 297.516 124.971 297.222 124.691 296.774C124.341 296.228 124.201 295.416 124.201 294.464ZM122.269 294.464C122.269 295.626 122.451 296.76 123.067 297.698C123.669 298.594 124.649 299.224 126.063 299.224C127.477 299.224 128.457 298.594 129.045 297.698C129.661 296.76 129.857 295.626 129.857 294.464C129.857 293.302 129.661 292.168 129.045 291.23C128.457 290.334 127.477 289.704 126.063 289.704C124.649 289.704 123.669 290.334 123.067 291.23C122.451 292.168 122.269 293.302 122.269 294.464ZM132.77 294.464C132.77 293.512 132.91 292.7 133.26 292.154C133.54 291.706 133.974 291.412 134.632 291.412C135.304 291.412 135.71 291.706 135.99 292.154C136.354 292.7 136.494 293.512 136.494 294.464C136.494 295.416 136.354 296.228 135.99 296.774C135.71 297.222 135.304 297.516 134.632 297.516C133.974 297.516 133.54 297.222 133.26 296.774C132.91 296.228 132.77 295.416 132.77 294.464ZM130.838 294.464C130.838 295.626 131.02 296.76 131.636 297.698C132.238 298.594 133.218 299.224 134.632 299.224C136.046 299.224 137.026 298.594 137.614 297.698C138.23 296.76 138.426 295.626 138.426 294.464C138.426 293.302 138.23 292.168 137.614 291.23C137.026 290.334 136.046 289.704 134.632 289.704C133.218 289.704 132.238 290.334 131.636 291.23C131.02 292.168 130.838 293.302 130.838 294.464Z" fill="#13C4A3"/>
<path d="M84.2858 318.956V312.536H86.0498C87.6218 312.536 88.9178 313.616 88.9178 315.764C88.9178 317.9 87.5978 318.956 86.0258 318.956H84.2858ZM86.0618 320C88.2218 320 90.1298 318.548 90.1298 315.764C90.1298 312.968 88.2458 311.492 86.0858 311.492H83.1098V320H86.0618ZM95.3106 319.304C95.3106 319.544 95.3346 319.868 95.3586 320H96.4386C96.4146 319.796 96.3786 319.388 96.3786 318.932V314.228H95.2506V317.708C95.2506 318.584 94.7946 319.184 93.8826 319.184C92.9346 319.184 92.5746 318.488 92.5746 317.696V314.228H91.4466V317.864C91.4466 319.172 92.2626 320.18 93.6066 320.18C94.2786 320.18 94.9986 319.904 95.3106 319.304ZM98.8568 316.52C98.9048 315.776 99.4808 315.044 100.429 315.044C101.449 315.044 101.989 315.692 102.013 316.52H98.8568ZM102.181 318.02C101.965 318.668 101.497 319.184 100.561 319.184C99.5888 319.184 98.8448 318.464 98.8208 317.432H103.165C103.177 317.36 103.189 317.216 103.189 317.072C103.189 315.272 102.193 314.048 100.417 314.048C98.9648 314.048 97.6568 315.284 97.6568 317.096C97.6568 319.052 99.0128 320.18 100.561 320.18C101.905 320.18 102.829 319.376 103.153 318.356L102.181 318.02ZM109.861 319.172C108.901 319.172 108.061 318.452 108.061 317.108C108.061 315.776 108.901 315.056 109.861 315.056C110.821 315.056 111.661 315.776 111.661 317.108C111.661 318.452 110.821 319.172 109.861 319.172ZM109.861 314.048C108.133 314.048 106.909 315.356 106.909 317.108C106.909 318.872 108.133 320.18 109.861 320.18C111.589 320.18 112.813 318.872 112.813 317.108C112.813 315.356 111.589 314.048 109.861 314.048ZM115.264 316.664C115.264 315.788 115.72 315.08 116.608 315.08C117.616 315.08 117.952 315.728 117.952 316.532V320H119.08V316.34C119.08 315.056 118.396 314.06 117.016 314.06C116.344 314.06 115.66 314.336 115.24 315.056V314.228H114.136V320H115.264V316.664ZM124.93 320V316.424H128.554V315.32H124.93V312.584H128.926V311.492H123.754V320H124.93ZM130.434 316.52C130.482 315.776 131.058 315.044 132.006 315.044C133.026 315.044 133.566 315.692 133.59 316.52H130.434ZM133.758 318.02C133.542 318.668 133.074 319.184 132.138 319.184C131.166 319.184 130.422 318.464 130.398 317.432H134.742C134.754 317.36 134.766 317.216 134.766 317.072C134.766 315.272 133.77 314.048 131.994 314.048C130.542 314.048 129.234 315.284 129.234 317.096C129.234 319.052 130.59 320.18 132.138 320.18C133.482 320.18 134.406 319.376 134.73 318.356L133.758 318.02ZM137.202 320V319.16C137.562 319.784 138.222 320.156 139.074 320.156C140.79 320.156 141.762 318.8 141.762 317.084C141.762 315.404 140.862 314.06 139.11 314.06C138.15 314.06 137.478 314.528 137.202 315.044V311.312H136.086V320H137.202ZM140.61 317.084C140.61 318.332 139.938 319.148 138.906 319.148C137.91 319.148 137.19 318.332 137.19 317.084C137.19 315.836 137.91 315.056 138.906 315.056C139.95 315.056 140.61 315.836 140.61 317.084ZM148.335 320V312.224H147.303C147.123 313.064 146.379 313.664 145.299 313.688V314.516H147.183V320H148.335ZM149.529 318.248H153.345V320H154.485V318.248H155.817V317.156H154.485V312.224H152.865L149.529 316.892V318.248ZM153.345 317.156H150.609L153.345 313.352V317.156Z" fill="#1D214C"/>
<path d="M283.945 294.816L281.725 288.492H279.913L283.057 297H284.761L287.917 288.492H286.165L283.945 294.816ZM290.359 297V291.096H288.763V297H290.359ZM288.571 289.164C288.571 289.692 289.015 290.136 289.555 290.136C290.107 290.136 290.539 289.692 290.539 289.164C290.539 288.612 290.107 288.168 289.555 288.168C289.015 288.168 288.571 288.612 288.571 289.164ZM293.112 293.376C293.148 292.836 293.604 292.212 294.432 292.212C295.344 292.212 295.728 292.788 295.752 293.376H293.112ZM295.908 294.912C295.716 295.44 295.308 295.812 294.564 295.812C293.772 295.812 293.112 295.248 293.076 294.468H297.3C297.3 294.444 297.324 294.204 297.324 293.976C297.324 292.08 296.232 290.916 294.408 290.916C292.896 290.916 291.504 292.14 291.504 294.024C291.504 296.016 292.932 297.18 294.552 297.18C296.004 297.18 296.94 296.328 297.24 295.308L295.908 294.912ZM301.715 291.096L300.431 294.888L299.339 291.096H297.659L299.543 297H301.163L302.519 292.968L303.899 297H305.495L307.343 291.096H305.759L304.667 294.9L303.395 291.096H301.715ZM312.84 295.464V290.028H314.172C315.564 290.028 316.716 290.904 316.716 292.752C316.716 294.6 315.552 295.464 314.16 295.464H312.84ZM314.22 297C316.644 297 318.432 295.44 318.432 292.752C318.432 290.064 316.656 288.492 314.232 288.492H311.184V297H314.22ZM320.827 293.376C320.863 292.836 321.319 292.212 322.147 292.212C323.059 292.212 323.443 292.788 323.467 293.376H320.827ZM323.623 294.912C323.431 295.44 323.023 295.812 322.279 295.812C321.487 295.812 320.827 295.248 320.791 294.468H325.015C325.015 294.444 325.039 294.204 325.039 293.976C325.039 292.08 323.947 290.916 322.123 290.916C320.611 290.916 319.219 292.14 319.219 294.024C319.219 296.016 320.647 297.18 322.267 297.18C323.719 297.18 324.655 296.328 324.955 295.308L323.623 294.912ZM328.144 289.332H326.704V290.16C326.704 290.688 326.416 291.096 325.792 291.096H325.492V292.512H326.56V295.26C326.56 296.4 327.28 297.084 328.432 297.084C328.9 297.084 329.188 297 329.332 296.94V295.62C329.248 295.644 329.032 295.668 328.84 295.668C328.384 295.668 328.144 295.5 328.144 294.984V292.512H329.332V291.096H328.144V289.332ZM330.243 295.392C330.243 296.316 331.011 297.168 332.271 297.168C333.147 297.168 333.711 296.76 334.011 296.292C334.011 296.52 334.035 296.844 334.071 297H335.535C335.499 296.796 335.463 296.376 335.463 296.064V293.16C335.463 291.972 334.767 290.916 332.895 290.916C331.311 290.916 330.459 291.936 330.363 292.86L331.779 293.16C331.827 292.644 332.211 292.2 332.907 292.2C333.579 292.2 333.903 292.548 333.903 292.968C333.903 293.172 333.795 293.34 333.459 293.388L332.007 293.604C331.023 293.748 330.243 294.336 330.243 295.392ZM332.607 295.98C332.091 295.98 331.839 295.644 331.839 295.296C331.839 294.84 332.163 294.612 332.571 294.552L333.903 294.348V294.612C333.903 295.656 333.279 295.98 332.607 295.98ZM338.547 297V291.096H336.951V297H338.547ZM336.759 289.164C336.759 289.692 337.203 290.136 337.743 290.136C338.295 290.136 338.727 289.692 338.727 289.164C338.727 288.612 338.295 288.168 337.743 288.168C337.203 288.168 336.759 288.612 336.759 289.164ZM341.732 297V288.312H340.136V297H341.732ZM342.817 295.356C342.889 296.028 343.501 297.18 345.277 297.18C346.825 297.18 347.569 296.196 347.569 295.236C347.569 294.372 346.981 293.664 345.817 293.424L344.977 293.244C344.653 293.184 344.437 293.004 344.437 292.716C344.437 292.38 344.773 292.128 345.193 292.128C345.865 292.128 346.117 292.572 346.165 292.92L347.497 292.62C347.425 291.984 346.861 290.916 345.181 290.916C343.909 290.916 342.973 291.792 342.973 292.848C342.973 293.676 343.489 294.36 344.629 294.612L345.409 294.792C345.865 294.888 346.045 295.104 346.045 295.368C346.045 295.68 345.793 295.956 345.265 295.956C344.569 295.956 344.221 295.524 344.185 295.056L342.817 295.356Z" fill="#1D214C"/>
<path d="M356.873 297.429C356.738 297.294 356.67 297.133 356.67 296.948C356.67 296.763 356.738 296.603 356.873 296.468L360.841 292.5L356.859 288.519C356.733 288.392 356.67 288.234 356.67 288.045C356.67 287.855 356.738 287.693 356.873 287.557C357.008 287.422 357.169 287.354 357.354 287.354C357.539 287.354 357.699 287.422 357.834 287.557L362.384 292.121C362.439 292.175 362.477 292.234 362.5 292.297C362.522 292.36 362.533 292.428 362.533 292.5C362.533 292.572 362.522 292.64 362.5 292.703C362.477 292.766 362.439 292.825 362.384 292.879L357.821 297.443C357.694 297.569 357.539 297.632 357.354 297.632C357.169 297.632 357.008 297.565 356.873 297.429Z" fill="#1D214C"/>
<path d="M366 342H39V344H366V342Z" fill="#F5F5F5" mask="url(#path-30-inside-5_548_4031)"/>
</g>
<rect x="39" y="37" width="327" height="104" rx="10" fill="#1D214C" fill-opacity="0.1"/>
<path d="M163.796 73.782V66.292H165.854C167.688 66.292 169.2 67.552 169.2 70.058C169.2 72.55 167.66 73.782 165.826 73.782H163.796ZM165.868 75C168.388 75 170.614 73.306 170.614 70.058C170.614 66.796 168.416 65.074 165.896 65.074H162.424V75H165.868ZM173.214 70.94C173.27 70.072 173.942 69.218 175.048 69.218C176.238 69.218 176.868 69.974 176.896 70.94H173.214ZM177.092 72.69C176.84 73.446 176.294 74.048 175.202 74.048C174.068 74.048 173.2 73.208 173.172 72.004H178.24C178.254 71.92 178.268 71.752 178.268 71.584C178.268 69.484 177.106 68.056 175.034 68.056C173.34 68.056 171.814 69.498 171.814 71.612C171.814 73.894 173.396 75.21 175.202 75.21C176.77 75.21 177.848 74.272 178.226 73.082L177.092 72.69ZM181.25 75V74.02C181.67 74.748 182.44 75.182 183.434 75.182C185.436 75.182 186.57 73.6 186.57 71.598C186.57 69.638 185.52 68.07 183.476 68.07C182.356 68.07 181.572 68.616 181.25 69.218V64.864H179.948V75H181.25ZM185.226 71.598C185.226 73.054 184.442 74.006 183.238 74.006C182.076 74.006 181.236 73.054 181.236 71.598C181.236 70.142 182.076 69.232 183.238 69.232C184.456 69.232 185.226 70.142 185.226 71.598ZM189.943 66.138H188.739V67.23C188.739 67.818 188.431 68.266 187.703 68.266H187.339V69.456H188.627V73.152C188.627 74.37 189.355 75.07 190.503 75.07C190.951 75.07 191.287 74.986 191.399 74.944V73.824C191.287 73.852 191.049 73.88 190.881 73.88C190.195 73.88 189.943 73.572 189.943 72.956V69.456H191.399V68.266H189.943V66.138ZM196.795 65.074V75H200.267C202.087 75 203.333 73.866 203.333 72.298C203.333 71.192 202.675 70.184 201.541 69.904C202.409 69.582 203.025 68.826 203.025 67.762C203.025 66.194 201.919 65.074 200.029 65.074H196.795ZM198.167 69.414V66.278H199.819C200.953 66.278 201.639 66.894 201.639 67.832C201.639 68.756 200.981 69.414 199.875 69.414H198.167ZM198.167 73.796V70.59H200.127C201.331 70.59 201.933 71.262 201.933 72.214C201.933 73.18 201.177 73.796 200.071 73.796H198.167ZM204.52 73.194C204.52 74.258 205.402 75.21 206.774 75.21C207.978 75.21 208.65 74.566 208.944 74.09C208.944 74.58 208.986 74.832 209.014 75H210.302C210.274 74.832 210.218 74.482 210.218 73.894V70.52C210.218 69.204 209.434 68.056 207.418 68.056C205.962 68.056 204.8 68.952 204.66 70.24L205.92 70.534C206.004 69.75 206.522 69.176 207.446 69.176C208.468 69.176 208.902 69.722 208.902 70.38C208.902 70.618 208.79 70.828 208.384 70.884L206.564 71.15C205.402 71.318 204.52 71.99 204.52 73.194ZM206.956 74.104C206.284 74.104 205.864 73.628 205.864 73.124C205.864 72.522 206.284 72.2 206.844 72.116L208.902 71.808V72.116C208.902 73.586 208.034 74.104 206.956 74.104ZM213.584 75V64.864H212.268V75H213.584ZM215.403 73.194C215.403 74.258 216.285 75.21 217.657 75.21C218.861 75.21 219.533 74.566 219.827 74.09C219.827 74.58 219.869 74.832 219.897 75H221.185C221.157 74.832 221.101 74.482 221.101 73.894V70.52C221.101 69.204 220.317 68.056 218.301 68.056C216.845 68.056 215.683 68.952 215.543 70.24L216.803 70.534C216.887 69.75 217.405 69.176 218.329 69.176C219.351 69.176 219.785 69.722 219.785 70.38C219.785 70.618 219.673 70.828 219.267 70.884L217.447 71.15C216.285 71.318 215.403 71.99 215.403 73.194ZM217.839 74.104C217.167 74.104 216.747 73.628 216.747 73.124C216.747 72.522 217.167 72.2 217.727 72.116L219.785 71.808V72.116C219.785 73.586 218.917 74.104 217.839 74.104ZM224.467 71.108C224.467 70.086 224.999 69.26 226.035 69.26C227.211 69.26 227.603 70.016 227.603 70.954V75H228.919V70.73C228.919 69.232 228.121 68.07 226.511 68.07C225.727 68.07 224.929 68.392 224.439 69.232V68.266H223.151V75H224.467V71.108ZM233.841 69.274C234.989 69.274 235.479 70.044 235.647 70.702L236.837 70.198C236.557 69.176 235.633 68.056 233.841 68.056C231.923 68.056 230.453 69.526 230.453 71.626C230.453 73.67 231.895 75.21 233.855 75.21C235.605 75.21 236.571 74.076 236.893 73.11L235.731 72.606C235.577 73.138 235.115 73.992 233.855 73.992C232.763 73.992 231.797 73.166 231.797 71.626C231.797 70.058 232.777 69.274 233.841 69.274ZM239.222 70.94C239.278 70.072 239.95 69.218 241.056 69.218C242.246 69.218 242.876 69.974 242.904 70.94H239.222ZM243.1 72.69C242.848 73.446 242.302 74.048 241.21 74.048C240.076 74.048 239.208 73.208 239.18 72.004H244.248C244.262 71.92 244.276 71.752 244.276 71.584C244.276 69.484 243.114 68.056 241.042 68.056C239.348 68.056 237.822 69.498 237.822 71.612C237.822 73.894 239.404 75.21 241.21 75.21C242.778 75.21 243.856 74.272 244.234 73.082L243.1 72.69Z" fill="black"/>
<path d="M157.046 101.288V98.456H150.086V101.288H157.046ZM164.009 107V101.072H162.617V99.296H164.009V97.568H162.617V95.792H164.009V89.864H167.777L169.649 95.792H171.833V89.864H174.497V95.792H175.865V97.568H174.497V99.296H175.865V101.072H174.497V107H170.705L168.785 101.072H166.673V107H164.009ZM166.673 99.296H168.257L167.729 97.568H166.625L166.673 99.296ZM171.905 103.256H172.025L171.929 101.072H171.281L171.905 103.256ZM166.577 95.792H167.249L166.553 93.488H166.457L166.577 95.792ZM170.777 99.296H171.881L171.833 97.568H170.225L170.777 99.296ZM189.337 107V91.424H186.481C186.169 93.056 184.585 94.328 182.305 94.352V96.584H186.049V107H189.337ZM195.391 99.224C195.391 97.592 195.631 96.2 196.231 95.264C196.711 94.496 197.455 93.992 198.583 93.992C199.735 93.992 200.431 94.496 200.911 95.264C201.535 96.2 201.775 97.592 201.775 99.224C201.775 100.856 201.535 102.248 200.911 103.184C200.431 103.952 199.735 104.456 198.583 104.456C197.455 104.456 196.711 103.952 196.231 103.184C195.631 102.248 195.391 100.856 195.391 99.224ZM192.079 99.224C192.079 101.216 192.391 103.16 193.447 104.768C194.479 106.304 196.159 107.384 198.583 107.384C201.007 107.384 202.687 106.304 203.695 104.768C204.751 103.16 205.087 101.216 205.087 99.224C205.087 97.232 204.751 95.288 203.695 93.68C202.687 92.144 201.007 91.064 198.583 91.064C196.159 91.064 194.479 92.144 193.447 93.68C192.391 95.288 192.079 97.232 192.079 99.224ZM206.334 105.08C206.334 106.232 207.15 107.072 208.326 107.072C208.59 107.072 208.854 107 208.95 106.928C208.902 108.248 207.75 109.28 206.67 109.52V111.056C208.446 110.84 210.894 109.352 210.894 105.824C210.894 104.264 210.006 103.064 208.518 103.064C207.27 103.064 206.334 103.928 206.334 105.08ZM215.934 99.224C215.934 97.592 216.174 96.2 216.774 95.264C217.254 94.496 217.998 93.992 219.126 93.992C220.278 93.992 220.974 94.496 221.454 95.264C222.078 96.2 222.318 97.592 222.318 99.224C222.318 100.856 222.078 102.248 221.454 103.184C220.974 103.952 220.278 104.456 219.126 104.456C217.998 104.456 217.254 103.952 216.774 103.184C216.174 102.248 215.934 100.856 215.934 99.224ZM212.622 99.224C212.622 101.216 212.934 103.16 213.99 104.768C215.022 106.304 216.702 107.384 219.126 107.384C221.55 107.384 223.23 106.304 224.238 104.768C225.294 103.16 225.63 101.216 225.63 99.224C225.63 97.232 225.294 95.288 224.238 93.68C223.23 92.144 221.55 91.064 219.126 91.064C216.702 91.064 215.022 92.144 213.99 93.68C212.934 95.288 212.622 97.232 212.622 99.224ZM230.624 99.224C230.624 97.592 230.864 96.2 231.464 95.264C231.944 94.496 232.688 93.992 233.816 93.992C234.968 93.992 235.664 94.496 236.144 95.264C236.768 96.2 237.008 97.592 237.008 99.224C237.008 100.856 236.768 102.248 236.144 103.184C235.664 103.952 234.968 104.456 233.816 104.456C232.688 104.456 231.944 103.952 231.464 103.184C230.864 102.248 230.624 100.856 230.624 99.224ZM227.312 99.224C227.312 101.216 227.624 103.16 228.68 104.768C229.712 106.304 231.392 107.384 233.816 107.384C236.24 107.384 237.92 106.304 238.928 104.768C239.984 103.16 240.32 101.216 240.32 99.224C240.32 97.232 239.984 95.288 238.928 93.68C237.92 92.144 236.24 91.064 233.816 91.064C231.392 91.064 229.712 92.144 228.68 93.68C227.624 95.288 227.312 97.232 227.312 99.224ZM245.314 99.224C245.314 97.592 245.554 96.2 246.154 95.264C246.634 94.496 247.378 93.992 248.506 93.992C249.658 93.992 250.354 94.496 250.834 95.264C251.458 96.2 251.698 97.592 251.698 99.224C251.698 100.856 251.458 102.248 250.834 103.184C250.354 103.952 249.658 104.456 248.506 104.456C247.378 104.456 246.634 103.952 246.154 103.184C245.554 102.248 245.314 100.856 245.314 99.224ZM242.002 99.224C242.002 101.216 242.314 103.16 243.37 104.768C244.402 106.304 246.082 107.384 248.506 107.384C250.93 107.384 252.61 106.304 253.618 104.768C254.674 103.16 255.01 101.216 255.01 99.224C255.01 97.232 254.674 95.288 253.618 93.68C252.61 92.144 250.93 91.064 248.506 91.064C246.082 91.064 244.402 92.144 243.37 93.68C242.314 95.288 242.002 97.232 242.002 99.224Z" fill="#1D214C"/>
<defs>
<filter id="filter0_d_548_4031" x="281" y="167" width="413" height="361" filterUnits="userSpaceOnUse" color-interpolation-filters="sRGB">
<feFlood flood-opacity="0" result="BackgroundImageFix"/>
<feColorMatrix in="SourceAlpha" type="matrix" values="0 0 0 0 0 0 0 0 0 0 0 0 0 0 0 0 0 0 127 0" result="hardAlpha"/>
<feOffset dx="4" dy="6"/>
<feGaussianBlur stdDeviation="11.5"/>
<feComposite in2="hardAlpha" operator="out"/>
<feColorMatrix type="matrix" values="0 0 0 0 0 0 0 0 0 0 0 0 0 0 0 0 0 0 0.06 0"/>
<feBlend mode="normal" in2="BackgroundImageFix" result="effect1_dropShadow_548_4031"/>
<feBlend mode="normal" in="SourceGraphic" in2="effect1_dropShadow_548_4031" result="shape"/>
</filter>
<filter id="filter1_d_548_4031" x="0" y="0" width="413" height="392" filterUnits="userSpaceOnUse" color-interpolation-filters="sRGB">
<feFlood flood-opacity="0" result="BackgroundImageFix"/>
<feColorMatrix in="SourceAlpha" type="matrix" values="0 0 0 0 0 0 0 0 0 0 0 0 0 0 0 0 0 0 127 0" result="hardAlpha"/>
<feOffset dx="4" dy="6"/>
<feGaussianBlur stdDeviation="11.5"/>
<feComposite in2="hardAlpha" operator="out"/>
<feColorMatrix type="matrix" values="0 0 0 0 0 0 0 0 0 0 0 0 0 0 0 0 0 0 0.06 0"/>
<feBlend mode="normal" in2="BackgroundImageFix" result="effect1_dropShadow_548_4031"/>
<feBlend mode="normal" in="SourceGraphic" in2="effect1_dropShadow_548_4031" result="shape"/>
</filter>
<clipPath id="clip0_548_4031">
<rect width="327" height="192" fill="white" transform="translate(39 151)"/>
</clipPath>
</defs>
</svg>
