<svg width="120" height="120" viewBox="0 0 120 120" fill="none" xmlns="http://www.w3.org/2000/svg">
<path d="M107.424 12.5758C95.1515 0.30303 82.4242 0 62.6515 0H60H57.3485C37.5758 0 24.8485 0.30303 12.5758 12.5758C0.30303 24.8485 0 37.5 0 57.3485V60V62.6515C0 82.5 0.30303 95.1515 12.5758 107.424C24.8485 119.697 37.5758 120 57.3485 120H60H62.6515C82.4242 120 95.1515 119.697 107.424 107.424C119.697 95.1515 120 82.5 120 62.6515V60V57.3485C120 37.5 119.697 24.8485 107.424 12.5758Z" fill="#01B5EC"/>
<path d="M54.7812 85.0485H68.6334C71.2172 85.0496 73.7745 85.5691 76.1539 86.5764C78.5332 87.5836 80.6863 89.058 82.4856 90.9123V32.4136C82.4856 28.7397 81.0262 25.2164 78.4284 22.6186C75.8306 20.0208 72.3072 18.5614 68.6334 18.5614H57.5578C56.8229 18.5614 56.1181 18.8533 55.5985 19.373C55.0788 19.8927 54.7868 20.5975 54.7868 21.3324L54.7812 85.0485Z" fill="white"/>
<path d="M40.6519 99.1916H79.7789C81.3183 99.1916 82.5778 100.63 82.5778 102.173C82.5778 94.4697 76.3165 88.0181 68.6137 88.0181H51.8198C51.456 88.0184 51.0958 87.9471 50.7596 87.8081C50.4234 87.6692 50.1179 87.4653 49.8606 87.2083C49.6032 86.9512 49.3991 86.6459 49.2598 86.3099C49.1205 85.9738 49.0488 85.6136 49.0488 85.2499V27.031H40.6519C39.9169 27.031 39.2121 27.3229 38.6925 27.8426C38.1728 28.3623 37.8809 29.0671 37.8809 29.802V96.4178C37.8805 96.7819 37.9519 97.1426 38.091 97.4791C38.2301 97.8156 38.4341 98.1214 38.6915 98.379C38.9488 98.6366 39.2544 98.841 39.5908 98.9804C39.9272 99.1198 40.2877 99.1916 40.6519 99.1916Z" fill="white"/>
</svg>
