<svg width="92" height="93" viewBox="0 0 92 93" fill="none" xmlns="http://www.w3.org/2000/svg">
<path d="M88.636 30.6679C85.3332 32.3883 82.0362 31.2202 80.3993 28.8246C80.2209 28.5637 79.9248 28.4159 79.6091 28.431C79.5191 28.4352 79.4283 28.4375 79.3372 28.4375C77.242 28.4375 75.3945 27.3809 74.2958 25.7722C74.1179 25.5117 73.8219 25.3647 73.5067 25.3796C73.4165 25.3838 73.3257 25.386 73.2343 25.386C69.8638 25.386 67.1315 22.6537 67.1315 19.2832C67.1315 19.1918 67.1338 19.1011 67.1379 19.0107C67.1528 18.6956 67.0058 18.3996 66.7453 18.2217C65.1366 17.123 64.08 15.2755 64.08 13.1803C64.08 13.089 64.0823 12.9984 64.0865 12.9082C64.1014 12.5925 63.9538 12.2964 63.6929 12.1182C61.2975 10.4813 60.1294 7.18408 61.8498 3.88167C56.8472 2.00409 51.4298 0.974609 45.7715 0.974609C20.4926 0.974609 0 21.4672 0 46.7461C0 72.0249 20.4926 92.5175 45.7715 92.5175C71.0503 92.5175 91.5429 72.0249 91.5429 46.7461C91.5429 41.0878 90.5134 35.6705 88.636 30.6679Z" fill="#F28A39"/>
<path d="M45.7715 92.5172C33.5455 92.5172 22.0513 87.7562 13.4061 79.1111C4.7608 70.4661 0 58.9717 0 46.7458C0 45.0604 1.36628 43.6943 3.05143 43.6943C4.73658 43.6943 6.10286 45.0604 6.10286 46.7458C6.10286 68.619 23.8982 86.4144 45.7715 86.4144C67.6447 86.4144 85.44 68.619 85.44 46.7458C85.44 45.0604 86.8063 43.6943 88.4915 43.6943C90.1766 43.6943 91.5429 45.0604 91.5429 46.7458C91.5429 58.9717 86.7819 70.4661 78.1368 79.1111C69.4917 87.7562 57.9974 92.5172 45.7715 92.5172Z" fill="#D26E28"/>
<path d="M3.05143 49.7975C1.36628 49.7975 0 48.4314 0 46.7461C0 34.5201 4.76099 23.0258 13.4061 14.3807C22.0512 5.7356 33.5455 0.974609 45.7715 0.974609C47.4566 0.974609 48.8229 2.3407 48.8229 4.02604C48.8229 5.71138 47.4566 7.07747 45.7715 7.07747C23.8982 7.07747 6.10286 24.8728 6.10286 46.7461C6.10286 48.4314 4.73658 49.7975 3.05143 49.7975Z" fill="#FFAA5A"/>
<path d="M82.3888 25.3861C84.0741 25.3861 85.4403 24.0199 85.4403 22.3346C85.4403 20.6494 84.0741 19.2832 82.3888 19.2832C80.7036 19.2832 79.3374 20.6494 79.3374 22.3346C79.3374 24.0199 80.7036 25.3861 82.3888 25.3861Z" fill="#F28A39"/>
<path d="M33.5662 40.6432C36.9368 40.6432 39.6691 37.9109 39.6691 34.5404C39.6691 31.1698 36.9368 28.4375 33.5662 28.4375C30.1957 28.4375 27.4634 31.1698 27.4634 34.5404C27.4634 37.9109 30.1957 40.6432 33.5662 40.6432Z" fill="#A55023"/>
<path d="M31.2773 34.5403C32.5413 34.5403 33.5659 33.5157 33.5659 32.2517C33.5659 30.9878 32.5413 29.9631 31.2773 29.9631C30.0134 29.9631 28.9888 30.9878 28.9888 32.2517C28.9888 33.5157 30.0134 34.5403 31.2773 34.5403Z" fill="#D26E28"/>
<path d="M61.0286 71.1574C64.3992 71.1574 67.1315 68.425 67.1315 65.0545C67.1315 61.684 64.3992 58.9517 61.0286 58.9517C57.6581 58.9517 54.9258 61.684 54.9258 65.0545C54.9258 68.425 57.6581 71.1574 61.0286 71.1574Z" fill="#A55023"/>
<path d="M58.7402 65.0544C60.0042 65.0544 61.0288 64.0298 61.0288 62.7659C61.0288 61.5019 60.0042 60.4773 58.7402 60.4773C57.4763 60.4773 56.4517 61.5019 56.4517 62.7659C56.4517 64.0298 57.4763 65.0544 58.7402 65.0544Z" fill="#D26E28"/>
<path d="M76.286 55.9001C79.6565 55.9001 82.3888 53.1677 82.3888 49.7972C82.3888 46.4267 79.6565 43.6943 76.286 43.6943C72.9154 43.6943 70.1831 46.4267 70.1831 49.7972C70.1831 53.1677 72.9154 55.9001 76.286 55.9001Z" fill="#A55023"/>
<path d="M73.9966 49.7974C75.2605 49.7974 76.2852 48.7727 76.2852 47.5088C76.2852 46.2448 75.2605 45.2202 73.9966 45.2202C72.7326 45.2202 71.708 46.2448 71.708 47.5088C71.708 48.7727 72.7326 49.7974 73.9966 49.7974Z" fill="#D26E28"/>
<path d="M71.7088 13.1803C72.5514 13.1803 73.2345 12.4973 73.2345 11.6546C73.2345 10.812 72.5514 10.1289 71.7088 10.1289C70.8662 10.1289 70.1831 10.812 70.1831 11.6546C70.1831 12.4973 70.8662 13.1803 71.7088 13.1803Z" fill="#F28A39"/>
<path d="M86.9657 16.2316C87.8083 16.2316 88.4914 15.5485 88.4914 14.7059C88.4914 13.8633 87.8083 13.1802 86.9657 13.1802C86.123 13.1802 85.4399 13.8633 85.4399 14.7059C85.4399 15.5485 86.123 16.2316 86.9657 16.2316Z" fill="#F28A39"/>
<path d="M61.0285 43.6947C62.7137 43.6947 64.0799 42.3285 64.0799 40.6432C64.0799 38.958 62.7137 37.5918 61.0285 37.5918C59.3432 37.5918 57.9771 38.958 57.9771 40.6432C57.9771 42.3285 59.3432 43.6947 61.0285 43.6947Z" fill="#A55023"/>
<path d="M40.1769 89.9747C41.8622 89.9747 43.2283 88.6085 43.2283 86.9233C43.2283 85.238 41.8622 83.8718 40.1769 83.8718C38.4917 83.8718 37.1255 85.238 37.1255 86.9233C37.1255 88.6085 38.4917 89.9747 40.1769 89.9747Z" fill="#A55023"/>
<path d="M21.3595 65.0545C23.0448 65.0545 24.411 63.6883 24.411 62.0031C24.411 60.3178 23.0448 58.9517 21.3595 58.9517C19.6743 58.9517 18.3081 60.3178 18.3081 62.0031C18.3081 63.6883 19.6743 65.0545 21.3595 65.0545Z" fill="#A55023"/>
<path d="M47.297 27.9288C48.9823 27.9288 50.3485 26.5626 50.3485 24.8774C50.3485 23.1921 48.9823 21.8259 47.297 21.8259C45.6118 21.8259 44.2456 23.1921 44.2456 24.8774C44.2456 26.5626 45.6118 27.9288 47.297 27.9288Z" fill="#D26E28"/>
<path d="M52.383 47.763C54.0682 47.763 55.4344 46.3969 55.4344 44.7116C55.4344 43.0263 54.0682 41.6602 52.383 41.6602C50.6977 41.6602 49.3315 43.0263 49.3315 44.7116C49.3315 46.3969 50.6977 47.763 52.383 47.763Z" fill="#D26E28"/>
<path d="M7.62907 62.0033C9.31432 62.0033 10.6805 60.6371 10.6805 58.9518C10.6805 57.2666 9.31432 55.9004 7.62907 55.9004C5.94381 55.9004 4.57764 57.2666 4.57764 58.9518C4.57764 60.6371 5.94381 62.0033 7.62907 62.0033Z" fill="#A55023"/>
<path d="M41.1942 55.9003C42.0368 55.9003 42.7199 55.2172 42.7199 54.3746C42.7199 53.532 42.0368 52.8489 41.1942 52.8489C40.3515 52.8489 39.6685 53.532 39.6685 54.3746C39.6685 55.2172 40.3515 55.9003 41.1942 55.9003Z" fill="#A55023"/>
<path d="M56.4515 77.2604C57.2941 77.2604 57.9772 76.5773 57.9772 75.7347C57.9772 74.8921 57.2941 74.209 56.4515 74.209C55.6089 74.209 54.9258 74.8921 54.9258 75.7347C54.9258 76.5773 55.6089 77.2604 56.4515 77.2604Z" fill="#A55023"/>
<path d="M56.4515 34.5402C57.2941 34.5402 57.9772 33.8571 57.9772 33.0145C57.9772 32.1719 57.2941 31.4888 56.4515 31.4888C55.6089 31.4888 54.9258 32.1719 54.9258 33.0145C54.9258 33.8571 55.6089 34.5402 56.4515 34.5402Z" fill="#A55023"/>
<path d="M18.8172 43.6945C19.6598 43.6945 20.3429 43.0114 20.3429 42.1688C20.3429 41.3262 19.6598 40.6431 18.8172 40.6431C17.9746 40.6431 17.2915 41.3262 17.2915 42.1688C17.2915 43.0114 17.9746 43.6945 18.8172 43.6945Z" fill="#D26E28"/>
<path d="M46.7879 72.6833C47.6306 72.6833 48.3136 72.0002 48.3136 71.1576C48.3136 70.3149 47.6306 69.6318 46.7879 69.6318C45.9453 69.6318 45.2622 70.3149 45.2622 71.1576C45.2622 72.0002 45.9453 72.6833 46.7879 72.6833Z" fill="#D26E28"/>
<path d="M29.4969 78.786C30.3395 78.786 31.0226 78.103 31.0226 77.2603C31.0226 76.4177 30.3395 75.7346 29.4969 75.7346C28.6543 75.7346 27.9712 76.4177 27.9712 77.2603C27.9712 78.103 28.6543 78.786 29.4969 78.786Z" fill="#D26E28"/>
<path d="M43.7371 9.11198C44.5798 9.11198 45.2629 8.42889 45.2629 7.58626C45.2629 6.74363 44.5798 6.06055 43.7371 6.06055C42.8945 6.06055 42.2114 6.74363 42.2114 7.58626C42.2114 8.42889 42.8945 9.11198 43.7371 9.11198Z" fill="#A55023"/>
<path d="M28.9891 22.3346C29.8317 22.3346 30.5148 21.6515 30.5148 20.8089C30.5148 19.9663 29.8317 19.2832 28.9891 19.2832C28.1465 19.2832 27.4634 19.9663 27.4634 20.8089C27.4634 21.6515 28.1465 22.3346 28.9891 22.3346Z" fill="#A55023"/>
</svg>
