<svg width="91" height="30" viewBox="0 0 91 30" fill="none" xmlns="http://www.w3.org/2000/svg">
<g clip-path="url(#clip0_841_3999)">
<path d="M13.59 24.15C14.4345 24.5095 15.1992 25.0329 15.84 25.69V4.92C15.84 3.61513 15.3216 2.36371 14.399 1.44103C13.4763 0.518356 12.2249 0 10.92 0L7 0C6.73478 0 6.48043 0.105357 6.29289 0.292893C6.10536 0.48043 6 0.734784 6 1V23.61H10.92C11.8373 23.6083 12.7455 23.792 13.59 24.15Z" fill="#1D214C"/>
<path d="M10.91 24.66H5.00002C4.87001 24.6616 4.74093 24.6378 4.62002 24.59C4.49814 24.5417 4.38875 24.4665 4.30002 24.37C4.17757 24.2869 4.0751 24.1776 4.00002 24.05C3.97439 23.928 3.97439 23.802 4.00002 23.68V3H1.00002C0.871279 2.99851 0.743604 3.02348 0.624911 3.07337C0.506219 3.12325 0.39904 3.19699 0.310019 3.29C0.210863 3.37952 0.131927 3.48915 0.0784728 3.61158C0.0250183 3.73401 -0.00172711 3.86642 1.93009e-05 4V27.64C0.00507979 27.7628 0.0286797 27.8842 0.0700193 28C0.121738 28.12 0.196481 28.2287 0.290019 28.32C0.38217 28.41 0.490826 28.4813 0.610019 28.53C0.727134 28.58 0.852717 28.6071 0.980019 28.61H14.88C15.1515 28.6229 15.4074 28.7406 15.5938 28.9383C15.7803 29.136 15.8829 29.3983 15.88 29.67C15.8827 28.3474 15.3612 27.0776 14.4297 26.1386C13.4982 25.1996 12.2326 24.6679 10.91 24.66Z" fill="#1D214C"/>
<path d="M27.77 7.85001H22.71V24.61H37.57V19.29H27.77V7.85001Z" fill="#1D214C"/>
<path d="M54.54 8.31H49.68V17.37C49.7002 17.7354 49.646 18.1012 49.5205 18.445C49.395 18.7888 49.2009 19.1035 48.95 19.37C48.6986 19.623 48.397 19.8205 48.0646 19.9497C47.7321 20.0789 47.3763 20.1369 47.02 20.12C46.6644 20.1421 46.3083 20.0845 45.9778 19.9513C45.6473 19.818 45.3508 19.6126 45.11 19.35C44.6591 18.7836 44.4283 18.0733 44.46 17.35V8.35H39.59V18.35C39.5396 19.9831 40.1197 21.573 41.21 22.79C41.7759 23.3886 42.4652 23.857 43.2302 24.1626C43.9951 24.4683 44.8174 24.6039 45.64 24.56C46.498 24.5686 47.3487 24.4019 48.14 24.07C48.8709 23.7895 49.4893 23.2765 49.9 22.61C49.8853 23.1465 49.9289 23.6829 50.03 24.21H54.7C54.5916 23.2639 54.5382 22.3123 54.54 21.36V8.31Z" fill="#1D214C"/>
<path d="M68.36 19.53C67.7445 20.0087 66.979 20.2532 66.2 20.22C65.7115 20.2285 65.2262 20.1391 64.7728 19.957C64.3194 19.7749 63.907 19.504 63.56 19.16C63.192 18.7802 62.9069 18.3281 62.7227 17.8323C62.5385 17.3366 62.4593 16.808 62.49 16.28C62.4524 15.7526 62.5216 15.2231 62.6934 14.7231C62.8652 14.223 63.1362 13.7628 63.49 13.37C63.8272 13.0212 64.2335 12.7466 64.683 12.5641C65.1324 12.3816 65.6151 12.295 66.1 12.31C66.8611 12.2716 67.6105 12.5095 68.21 12.98C68.7386 13.4219 69.119 14.0152 69.3 14.68L73.65 13.37C73.2701 11.8035 72.367 10.4136 71.09 9.43C69.633 8.31722 67.8317 7.75099 66 7.83C64.8859 7.80365 63.7782 8.00467 62.7444 8.42077C61.7106 8.83687 60.7724 9.45933 59.9872 10.2501C59.2021 11.0409 58.5863 11.9835 58.1776 13.0202C57.7688 14.057 57.5757 15.1661 57.61 16.28C57.5811 17.3979 57.7868 18.5094 58.214 19.5429C58.6412 20.5763 59.2803 21.5088 60.09 22.28C60.8949 23.0715 61.8503 23.6934 62.8998 24.1091C63.9493 24.5248 65.0715 24.7257 66.2 24.7C68.0071 24.7655 69.7788 24.1879 71.2 23.07C72.4679 22.087 73.375 20.7123 73.78 19.16L69.5 17.85C69.3024 18.5142 68.9042 19.101 68.36 19.53Z" fill="#1D214C"/>
<path d="M90.12 21.75V14C90.15 13.1858 90.0139 12.3739 89.7199 11.614C89.4259 10.8541 88.9802 10.162 88.41 9.58C87.26 8.43 85.49 7.85 83.08 7.85C81.2645 7.74702 79.4776 8.3367 78.08 9.5C76.9657 10.4074 76.2484 11.7129 76.08 13.14L80.31 14C80.3494 13.3684 80.6327 12.7767 81.1 12.35C81.6138 11.9441 82.2409 11.7078 82.8948 11.6738C83.5486 11.6397 84.1969 11.8096 84.75 12.16C84.9437 12.3033 85.1008 12.4903 85.2085 12.7058C85.3163 12.9212 85.3716 13.1591 85.37 13.4C85.37 14.01 84.99 14.4 84.22 14.48L80.48 15C79.2167 15.1529 78.0321 15.6945 77.09 16.55C76.6532 16.9675 76.3104 17.4733 76.0845 18.0337C75.8586 18.5941 75.7548 19.1963 75.78 19.8C75.7747 20.4412 75.9046 21.0763 76.1613 21.6639C76.4181 22.2515 76.7959 22.7783 77.27 23.21C78.3615 24.1973 79.8 24.7115 81.27 24.64C82.1511 24.7082 83.0342 24.5358 83.825 24.1413C84.6157 23.7468 85.2846 23.1449 85.76 22.4C85.7422 23.0009 85.7959 23.6018 85.92 24.19H90.3C90.1624 23.3843 90.1022 22.5672 90.12 21.75ZM85.38 18C85.422 18.4407 85.3697 18.8854 85.2266 19.3044C85.0835 19.7233 84.8529 20.107 84.55 20.43C83.9759 20.9321 83.2322 21.1967 82.47 21.17C82.2036 21.1942 81.9351 21.1623 81.6819 21.0761C81.4287 20.99 81.1964 20.8516 81 20.67C80.8487 20.5189 80.7296 20.3385 80.65 20.14C80.5731 19.9391 80.5358 19.7251 80.54 19.51C80.54 18.51 81.14 17.95 82.33 17.75L85.33 17.27L85.38 18Z" fill="#1D214C"/>
</g>
<defs>
<clipPath id="clip0_841_3999">
<rect width="90.31" height="29.69" fill="white"/>
</clipPath>
</defs>
</svg>
