<svg width="45" height="45" viewBox="0 0 45 45" fill="none" xmlns="http://www.w3.org/2000/svg">
<path d="M35.1 27.675C35.7562 26.0812 36.1125 24.375 36.1125 22.5C36.1125 21.15 35.9062 19.8562 35.55 18.6562C34.3312 18.9375 33.0562 19.0875 31.725 19.0875C28.9987 19.0904 26.3116 18.4378 23.8904 17.1848C21.4691 15.9317 19.3846 14.1149 17.8125 11.8875C16.1308 15.9566 12.9584 19.2296 8.94375 21.0375C8.86875 21.5062 8.86875 22.0125 8.86875 22.5C8.86875 24.2901 9.22133 26.0626 9.90637 27.7164C10.5914 29.3703 11.5955 30.873 12.8612 32.1387C15.4176 34.6951 18.8848 36.1312 22.5 36.1312C24.4688 36.1312 26.3625 35.7 28.0688 34.9312C29.1375 36.975 29.625 37.9875 29.5875 37.9875C26.5125 39.0187 24.1313 39.525 22.5 39.525C17.9625 39.525 13.6313 37.7437 10.4438 34.5375C8.505 32.6047 7.06382 30.2306 6.24375 27.6187H3.75V19.0875H5.79375C6.41295 16.0735 7.83655 13.2833 9.91348 11.013C11.9904 8.74269 14.6432 7.077 17.5904 6.19266C20.5375 5.30832 23.6691 5.23831 26.6529 5.99007C29.6366 6.74182 32.3612 8.28729 34.5375 10.4625C36.9004 12.8161 38.5121 15.8177 39.1687 19.0875H41.25V27.6187H41.1375L34.4625 33.75L24.525 32.625V29.4937H33.5812L35.1 27.675ZM17.3813 22.0687C17.9438 22.0687 18.4875 22.2937 18.8812 22.7062C19.277 23.1052 19.499 23.6443 19.499 24.2062C19.499 24.7682 19.277 25.3073 18.8812 25.7062C18.4875 26.1 17.9438 26.325 17.3813 26.325C16.2 26.325 15.2438 25.3875 15.2438 24.2062C15.2438 23.025 16.2 22.0687 17.3813 22.0687ZM27.6 22.0687C28.7812 22.0687 29.7188 23.025 29.7188 24.2062C29.7188 25.3875 28.7812 26.325 27.6 26.325C26.4188 26.325 25.4625 25.3875 25.4625 24.2062C25.4625 23.6393 25.6877 23.0957 26.0886 22.6948C26.4894 22.2939 27.0331 22.0687 27.6 22.0687Z" fill="white"/>
</svg>
